<?xml version="1.0" encoding="utf-8" standalone="no"?>
<!DOCTYPE svg PUBLIC "-//W3C//DTD SVG 1.1//EN"
  "http://www.w3.org/Graphics/SVG/1.1/DTD/svg11.dtd">
<!-- Created with matplotlib (https://matplotlib.org/) -->
<svg height="288pt" version="1.1" viewBox="0 0 432 288" width="432pt" xmlns="http://www.w3.org/2000/svg" xmlns:xlink="http://www.w3.org/1999/xlink">
 <defs>
  <style type="text/css">
*{stroke-linecap:butt;stroke-linejoin:round;}
  </style>
 </defs>
 <g id="figure_1">
  <g id="patch_1">
   <path d="M 0 288 
L 432 288 
L 432 0 
L 0 0 
z
" style="fill:#ffffff;"/>
  </g>
  <g id="axes_1">
   <g id="patch_2">
    <path d="M 54 252 
L 388.8 252 
L 388.8 34.56 
L 54 34.56 
z
" style="fill:#ffffff;"/>
   </g>
   <g id="patch_3">
    <path clip-path="url(#p736375da9a)" d="M 60.975 252 
L 74.925 252 
L 74.925 227.149714 
L 60.975 227.149714 
z
" style="fill:#0d0887;"/>
   </g>
   <g id="patch_4">
    <path clip-path="url(#p736375da9a)" d="M 88.875 252 
L 102.825 252 
L 102.825 243.716571 
L 88.875 243.716571 
z
" style="fill:#0d0887;"/>
   </g>
   <g id="patch_5">
    <path clip-path="url(#p736375da9a)" d="M 116.775 252 
L 130.725 252 
L 130.725 235.433143 
L 116.775 235.433143 
z
" style="fill:#0d0887;"/>
   </g>
   <g id="patch_6">
    <path clip-path="url(#p736375da9a)" d="M 144.675 252 
L 158.625 252 
L 158.625 235.433143 
L 144.675 235.433143 
z
" style="fill:#0d0887;"/>
   </g>
   <g id="patch_7">
    <path clip-path="url(#p736375da9a)" d="M 172.575 252 
L 186.525 252 
L 186.525 243.716571 
L 172.575 243.716571 
z
" style="fill:#0d0887;"/>
   </g>
   <g id="patch_8">
    <path clip-path="url(#p736375da9a)" d="M 200.475 252 
L 214.425 252 
L 214.425 218.866286 
L 200.475 218.866286 
z
" style="fill:#0d0887;"/>
   </g>
   <g id="patch_9">
    <path clip-path="url(#p736375da9a)" d="M 228.375 252 
L 242.325 252 
L 242.325 194.016 
L 228.375 194.016 
z
" style="fill:#0d0887;"/>
   </g>
   <g id="patch_10">
    <path clip-path="url(#p736375da9a)" d="M 256.275 252 
L 270.225 252 
L 270.225 218.866286 
L 256.275 218.866286 
z
" style="fill:#0d0887;"/>
   </g>
   <g id="patch_11">
    <path clip-path="url(#p736375da9a)" d="M 284.175 252 
L 298.125 252 
L 298.125 218.866286 
L 284.175 218.866286 
z
" style="fill:#0d0887;"/>
   </g>
   <g id="patch_12">
    <path clip-path="url(#p736375da9a)" d="M 312.075 252 
L 326.025 252 
L 326.025 235.433143 
L 312.075 235.433143 
z
" style="fill:#0d0887;"/>
   </g>
   <g id="patch_13">
    <path clip-path="url(#p736375da9a)" d="M 339.975 252 
L 353.925 252 
L 353.925 210.582857 
L 339.975 210.582857 
z
" style="fill:#0d0887;"/>
   </g>
   <g id="patch_14">
    <path clip-path="url(#p736375da9a)" d="M 367.875 252 
L 381.825 252 
L 381.825 218.866286 
L 367.875 218.866286 
z
" style="fill:#0d0887;"/>
   </g>
   <g id="patch_15">
    <path clip-path="url(#p736375da9a)" d="M 60.975 227.149714 
L 74.925 227.149714 
L 74.925 210.582857 
L 60.975 210.582857 
z
" style="fill:#4c02a1;"/>
   </g>
   <g id="patch_16">
    <path clip-path="url(#p736375da9a)" d="M 88.875 243.716571 
L 102.825 243.716571 
L 102.825 235.433143 
L 88.875 235.433143 
z
" style="fill:#4c02a1;"/>
   </g>
   <g id="patch_17">
    <path clip-path="url(#p736375da9a)" d="M 116.775 235.433143 
L 130.725 235.433143 
L 130.725 210.582857 
L 116.775 210.582857 
z
" style="fill:#4c02a1;"/>
   </g>
   <g id="patch_18">
    <path clip-path="url(#p736375da9a)" d="M 144.675 252 
L 158.625 252 
L 158.625 252 
L 144.675 252 
z
" style="fill:#4c02a1;"/>
   </g>
   <g id="patch_19">
    <path clip-path="url(#p736375da9a)" d="M 172.575 252 
L 186.525 252 
L 186.525 252 
L 172.575 252 
z
" style="fill:#4c02a1;"/>
   </g>
   <g id="patch_20">
    <path clip-path="url(#p736375da9a)" d="M 200.475 218.866286 
L 214.425 218.866286 
L 214.425 202.299429 
L 200.475 202.299429 
z
" style="fill:#4c02a1;"/>
   </g>
   <g id="patch_21">
    <path clip-path="url(#p736375da9a)" d="M 228.375 194.016 
L 242.325 194.016 
L 242.325 185.732571 
L 228.375 185.732571 
z
" style="fill:#4c02a1;"/>
   </g>
   <g id="patch_22">
    <path clip-path="url(#p736375da9a)" d="M 256.275 218.866286 
L 270.225 218.866286 
L 270.225 210.582857 
L 256.275 210.582857 
z
" style="fill:#4c02a1;"/>
   </g>
   <g id="patch_23">
    <path clip-path="url(#p736375da9a)" d="M 284.175 252 
L 298.125 252 
L 298.125 252 
L 284.175 252 
z
" style="fill:#4c02a1;"/>
   </g>
   <g id="patch_24">
    <path clip-path="url(#p736375da9a)" d="M 312.075 235.433143 
L 326.025 235.433143 
L 326.025 194.016 
L 312.075 194.016 
z
" style="fill:#4c02a1;"/>
   </g>
   <g id="patch_25">
    <path clip-path="url(#p736375da9a)" d="M 339.975 210.582857 
L 353.925 210.582857 
L 353.925 185.732571 
L 339.975 185.732571 
z
" style="fill:#4c02a1;"/>
   </g>
   <g id="patch_26">
    <path clip-path="url(#p736375da9a)" d="M 367.875 218.866286 
L 381.825 218.866286 
L 381.825 210.582857 
L 367.875 210.582857 
z
" style="fill:#4c02a1;"/>
   </g>
   <g id="patch_27">
    <path clip-path="url(#p736375da9a)" d="M 60.975 252 
L 74.925 252 
L 74.925 252 
L 60.975 252 
z
" style="fill:#7e03a8;"/>
   </g>
   <g id="patch_28">
    <path clip-path="url(#p736375da9a)" d="M 88.875 252 
L 102.825 252 
L 102.825 252 
L 88.875 252 
z
" style="fill:#7e03a8;"/>
   </g>
   <g id="patch_29">
    <path clip-path="url(#p736375da9a)" d="M 116.775 210.582857 
L 130.725 210.582857 
L 130.725 194.016 
L 116.775 194.016 
z
" style="fill:#7e03a8;"/>
   </g>
   <g id="patch_30">
    <path clip-path="url(#p736375da9a)" d="M 144.675 252 
L 158.625 252 
L 158.625 252 
L 144.675 252 
z
" style="fill:#7e03a8;"/>
   </g>
   <g id="patch_31">
    <path clip-path="url(#p736375da9a)" d="M 172.575 252 
L 186.525 252 
L 186.525 252 
L 172.575 252 
z
" style="fill:#7e03a8;"/>
   </g>
   <g id="patch_32">
    <path clip-path="url(#p736375da9a)" d="M 200.475 252 
L 214.425 252 
L 214.425 252 
L 200.475 252 
z
" style="fill:#7e03a8;"/>
   </g>
   <g id="patch_33">
    <path clip-path="url(#p736375da9a)" d="M 228.375 252 
L 242.325 252 
L 242.325 252 
L 228.375 252 
z
" style="fill:#7e03a8;"/>
   </g>
   <g id="patch_34">
    <path clip-path="url(#p736375da9a)" d="M 256.275 252 
L 270.225 252 
L 270.225 252 
L 256.275 252 
z
" style="fill:#7e03a8;"/>
   </g>
   <g id="patch_35">
    <path clip-path="url(#p736375da9a)" d="M 284.175 252 
L 298.125 252 
L 298.125 252 
L 284.175 252 
z
" style="fill:#7e03a8;"/>
   </g>
   <g id="patch_36">
    <path clip-path="url(#p736375da9a)" d="M 312.075 252 
L 326.025 252 
L 326.025 252 
L 312.075 252 
z
" style="fill:#7e03a8;"/>
   </g>
   <g id="patch_37">
    <path clip-path="url(#p736375da9a)" d="M 339.975 252 
L 353.925 252 
L 353.925 252 
L 339.975 252 
z
" style="fill:#7e03a8;"/>
   </g>
   <g id="patch_38">
    <path clip-path="url(#p736375da9a)" d="M 367.875 252 
L 381.825 252 
L 381.825 252 
L 367.875 252 
z
" style="fill:#7e03a8;"/>
   </g>
   <g id="patch_39">
    <path clip-path="url(#p736375da9a)" d="M 60.975 252 
L 74.925 252 
L 74.925 252 
L 60.975 252 
z
" style="fill:#aa2395;"/>
   </g>
   <g id="patch_40">
    <path clip-path="url(#p736375da9a)" d="M 88.875 252 
L 102.825 252 
L 102.825 252 
L 88.875 252 
z
" style="fill:#aa2395;"/>
   </g>
   <g id="patch_41">
    <path clip-path="url(#p736375da9a)" d="M 116.775 252 
L 130.725 252 
L 130.725 252 
L 116.775 252 
z
" style="fill:#aa2395;"/>
   </g>
   <g id="patch_42">
    <path clip-path="url(#p736375da9a)" d="M 144.675 252 
L 158.625 252 
L 158.625 252 
L 144.675 252 
z
" style="fill:#aa2395;"/>
   </g>
   <g id="patch_43">
    <path clip-path="url(#p736375da9a)" d="M 172.575 252 
L 186.525 252 
L 186.525 252 
L 172.575 252 
z
" style="fill:#aa2395;"/>
   </g>
   <g id="patch_44">
    <path clip-path="url(#p736375da9a)" d="M 200.475 252 
L 214.425 252 
L 214.425 252 
L 200.475 252 
z
" style="fill:#aa2395;"/>
   </g>
   <g id="patch_45">
    <path clip-path="url(#p736375da9a)" d="M 228.375 185.732571 
L 242.325 185.732571 
L 242.325 177.449143 
L 228.375 177.449143 
z
" style="fill:#aa2395;"/>
   </g>
   <g id="patch_46">
    <path clip-path="url(#p736375da9a)" d="M 256.275 252 
L 270.225 252 
L 270.225 252 
L 256.275 252 
z
" style="fill:#aa2395;"/>
   </g>
   <g id="patch_47">
    <path clip-path="url(#p736375da9a)" d="M 284.175 252 
L 298.125 252 
L 298.125 252 
L 284.175 252 
z
" style="fill:#aa2395;"/>
   </g>
   <g id="patch_48">
    <path clip-path="url(#p736375da9a)" d="M 312.075 252 
L 326.025 252 
L 326.025 252 
L 312.075 252 
z
" style="fill:#aa2395;"/>
   </g>
   <g id="patch_49">
    <path clip-path="url(#p736375da9a)" d="M 339.975 252 
L 353.925 252 
L 353.925 252 
L 339.975 252 
z
" style="fill:#aa2395;"/>
   </g>
   <g id="patch_50">
    <path clip-path="url(#p736375da9a)" d="M 367.875 210.582857 
L 381.825 210.582857 
L 381.825 202.299429 
L 367.875 202.299429 
z
" style="fill:#aa2395;"/>
   </g>
   <g id="patch_51">
    <path clip-path="url(#p736375da9a)" d="M 60.975 252 
L 74.925 252 
L 74.925 252 
L 60.975 252 
z
" style="fill:#cc4778;"/>
   </g>
   <g id="patch_52">
    <path clip-path="url(#p736375da9a)" d="M 88.875 235.433143 
L 102.825 235.433143 
L 102.825 218.866286 
L 88.875 218.866286 
z
" style="fill:#cc4778;"/>
   </g>
   <g id="patch_53">
    <path clip-path="url(#p736375da9a)" d="M 116.775 252 
L 130.725 252 
L 130.725 252 
L 116.775 252 
z
" style="fill:#cc4778;"/>
   </g>
   <g id="patch_54">
    <path clip-path="url(#p736375da9a)" d="M 144.675 235.433143 
L 158.625 235.433143 
L 158.625 227.149714 
L 144.675 227.149714 
z
" style="fill:#cc4778;"/>
   </g>
   <g id="patch_55">
    <path clip-path="url(#p736375da9a)" d="M 172.575 252 
L 186.525 252 
L 186.525 252 
L 172.575 252 
z
" style="fill:#cc4778;"/>
   </g>
   <g id="patch_56">
    <path clip-path="url(#p736375da9a)" d="M 200.475 202.299429 
L 214.425 202.299429 
L 214.425 185.732571 
L 200.475 185.732571 
z
" style="fill:#cc4778;"/>
   </g>
   <g id="patch_57">
    <path clip-path="url(#p736375da9a)" d="M 228.375 177.449143 
L 242.325 177.449143 
L 242.325 169.165714 
L 228.375 169.165714 
z
" style="fill:#cc4778;"/>
   </g>
   <g id="patch_58">
    <path clip-path="url(#p736375da9a)" d="M 256.275 210.582857 
L 270.225 210.582857 
L 270.225 202.299429 
L 256.275 202.299429 
z
" style="fill:#cc4778;"/>
   </g>
   <g id="patch_59">
    <path clip-path="url(#p736375da9a)" d="M 284.175 218.866286 
L 298.125 218.866286 
L 298.125 194.016 
L 284.175 194.016 
z
" style="fill:#cc4778;"/>
   </g>
   <g id="patch_60">
    <path clip-path="url(#p736375da9a)" d="M 312.075 194.016 
L 326.025 194.016 
L 326.025 185.732571 
L 312.075 185.732571 
z
" style="fill:#cc4778;"/>
   </g>
   <g id="patch_61">
    <path clip-path="url(#p736375da9a)" d="M 339.975 185.732571 
L 353.925 185.732571 
L 353.925 177.449143 
L 339.975 177.449143 
z
" style="fill:#cc4778;"/>
   </g>
   <g id="patch_62">
    <path clip-path="url(#p736375da9a)" d="M 367.875 252 
L 381.825 252 
L 381.825 252 
L 367.875 252 
z
" style="fill:#cc4778;"/>
   </g>
   <g id="patch_63">
    <path clip-path="url(#p736375da9a)" d="M 60.975 252 
L 74.925 252 
L 74.925 252 
L 60.975 252 
z
" style="fill:#e66c5c;"/>
   </g>
   <g id="patch_64">
    <path clip-path="url(#p736375da9a)" d="M 88.875 252 
L 102.825 252 
L 102.825 252 
L 88.875 252 
z
" style="fill:#e66c5c;"/>
   </g>
   <g id="patch_65">
    <path clip-path="url(#p736375da9a)" d="M 116.775 252 
L 130.725 252 
L 130.725 252 
L 116.775 252 
z
" style="fill:#e66c5c;"/>
   </g>
   <g id="patch_66">
    <path clip-path="url(#p736375da9a)" d="M 144.675 252 
L 158.625 252 
L 158.625 252 
L 144.675 252 
z
" style="fill:#e66c5c;"/>
   </g>
   <g id="patch_67">
    <path clip-path="url(#p736375da9a)" d="M 172.575 252 
L 186.525 252 
L 186.525 252 
L 172.575 252 
z
" style="fill:#e66c5c;"/>
   </g>
   <g id="patch_68">
    <path clip-path="url(#p736375da9a)" d="M 200.475 252 
L 214.425 252 
L 214.425 252 
L 200.475 252 
z
" style="fill:#e66c5c;"/>
   </g>
   <g id="patch_69">
    <path clip-path="url(#p736375da9a)" d="M 228.375 252 
L 242.325 252 
L 242.325 252 
L 228.375 252 
z
" style="fill:#e66c5c;"/>
   </g>
   <g id="patch_70">
    <path clip-path="url(#p736375da9a)" d="M 256.275 252 
L 270.225 252 
L 270.225 252 
L 256.275 252 
z
" style="fill:#e66c5c;"/>
   </g>
   <g id="patch_71">
    <path clip-path="url(#p736375da9a)" d="M 284.175 252 
L 298.125 252 
L 298.125 252 
L 284.175 252 
z
" style="fill:#e66c5c;"/>
   </g>
   <g id="patch_72">
    <path clip-path="url(#p736375da9a)" d="M 312.075 252 
L 326.025 252 
L 326.025 252 
L 312.075 252 
z
" style="fill:#e66c5c;"/>
   </g>
   <g id="patch_73">
    <path clip-path="url(#p736375da9a)" d="M 339.975 177.449143 
L 353.925 177.449143 
L 353.925 169.165714 
L 339.975 169.165714 
z
" style="fill:#e66c5c;"/>
   </g>
   <g id="patch_74">
    <path clip-path="url(#p736375da9a)" d="M 367.875 202.299429 
L 381.825 202.299429 
L 381.825 194.016 
L 367.875 194.016 
z
" style="fill:#e66c5c;"/>
   </g>
   <g id="patch_75">
    <path clip-path="url(#p736375da9a)" d="M 60.975 252 
L 74.925 252 
L 74.925 252 
L 60.975 252 
z
" style="fill:#f89540;"/>
   </g>
   <g id="patch_76">
    <path clip-path="url(#p736375da9a)" d="M 88.875 252 
L 102.825 252 
L 102.825 252 
L 88.875 252 
z
" style="fill:#f89540;"/>
   </g>
   <g id="patch_77">
    <path clip-path="url(#p736375da9a)" d="M 116.775 194.016 
L 130.725 194.016 
L 130.725 185.732571 
L 116.775 185.732571 
z
" style="fill:#f89540;"/>
   </g>
   <g id="patch_78">
    <path clip-path="url(#p736375da9a)" d="M 144.675 227.149714 
L 158.625 227.149714 
L 158.625 194.016 
L 144.675 194.016 
z
" style="fill:#f89540;"/>
   </g>
   <g id="patch_79">
    <path clip-path="url(#p736375da9a)" d="M 172.575 252 
L 186.525 252 
L 186.525 252 
L 172.575 252 
z
" style="fill:#f89540;"/>
   </g>
   <g id="patch_80">
    <path clip-path="url(#p736375da9a)" d="M 200.475 185.732571 
L 214.425 185.732571 
L 214.425 152.598857 
L 200.475 152.598857 
z
" style="fill:#f89540;"/>
   </g>
   <g id="patch_81">
    <path clip-path="url(#p736375da9a)" d="M 228.375 252 
L 242.325 252 
L 242.325 252 
L 228.375 252 
z
" style="fill:#f89540;"/>
   </g>
   <g id="patch_82">
    <path clip-path="url(#p736375da9a)" d="M 256.275 202.299429 
L 270.225 202.299429 
L 270.225 194.016 
L 256.275 194.016 
z
" style="fill:#f89540;"/>
   </g>
   <g id="patch_83">
    <path clip-path="url(#p736375da9a)" d="M 284.175 194.016 
L 298.125 194.016 
L 298.125 185.732571 
L 284.175 185.732571 
z
" style="fill:#f89540;"/>
   </g>
   <g id="patch_84">
    <path clip-path="url(#p736375da9a)" d="M 312.075 185.732571 
L 326.025 185.732571 
L 326.025 160.882286 
L 312.075 160.882286 
z
" style="fill:#f89540;"/>
   </g>
   <g id="patch_85">
    <path clip-path="url(#p736375da9a)" d="M 339.975 252 
L 353.925 252 
L 353.925 252 
L 339.975 252 
z
" style="fill:#f89540;"/>
   </g>
   <g id="patch_86">
    <path clip-path="url(#p736375da9a)" d="M 367.875 252 
L 381.825 252 
L 381.825 252 
L 367.875 252 
z
" style="fill:#f89540;"/>
   </g>
   <g id="patch_87">
    <path clip-path="url(#p736375da9a)" d="M 60.975 252 
L 74.925 252 
L 74.925 252 
L 60.975 252 
z
" style="fill:#fdc527;"/>
   </g>
   <g id="patch_88">
    <path clip-path="url(#p736375da9a)" d="M 88.875 252 
L 102.825 252 
L 102.825 252 
L 88.875 252 
z
" style="fill:#fdc527;"/>
   </g>
   <g id="patch_89">
    <path clip-path="url(#p736375da9a)" d="M 116.775 252 
L 130.725 252 
L 130.725 252 
L 116.775 252 
z
" style="fill:#fdc527;"/>
   </g>
   <g id="patch_90">
    <path clip-path="url(#p736375da9a)" d="M 144.675 252 
L 158.625 252 
L 158.625 252 
L 144.675 252 
z
" style="fill:#fdc527;"/>
   </g>
   <g id="patch_91">
    <path clip-path="url(#p736375da9a)" d="M 172.575 252 
L 186.525 252 
L 186.525 252 
L 172.575 252 
z
" style="fill:#fdc527;"/>
   </g>
   <g id="patch_92">
    <path clip-path="url(#p736375da9a)" d="M 200.475 252 
L 214.425 252 
L 214.425 252 
L 200.475 252 
z
" style="fill:#fdc527;"/>
   </g>
   <g id="patch_93">
    <path clip-path="url(#p736375da9a)" d="M 228.375 252 
L 242.325 252 
L 242.325 252 
L 228.375 252 
z
" style="fill:#fdc527;"/>
   </g>
   <g id="patch_94">
    <path clip-path="url(#p736375da9a)" d="M 256.275 194.016 
L 270.225 194.016 
L 270.225 185.732571 
L 256.275 185.732571 
z
" style="fill:#fdc527;"/>
   </g>
   <g id="patch_95">
    <path clip-path="url(#p736375da9a)" d="M 284.175 252 
L 298.125 252 
L 298.125 252 
L 284.175 252 
z
" style="fill:#fdc527;"/>
   </g>
   <g id="patch_96">
    <path clip-path="url(#p736375da9a)" d="M 312.075 252 
L 326.025 252 
L 326.025 252 
L 312.075 252 
z
" style="fill:#fdc527;"/>
   </g>
   <g id="patch_97">
    <path clip-path="url(#p736375da9a)" d="M 339.975 252 
L 353.925 252 
L 353.925 252 
L 339.975 252 
z
" style="fill:#fdc527;"/>
   </g>
   <g id="patch_98">
    <path clip-path="url(#p736375da9a)" d="M 367.875 252 
L 381.825 252 
L 381.825 252 
L 367.875 252 
z
" style="fill:#fdc527;"/>
   </g>
   <g id="patch_99">
    <path clip-path="url(#p736375da9a)" d="M 60.975 252 
L 74.925 252 
L 74.925 252 
L 60.975 252 
z
" style="fill:#f0f921;"/>
   </g>
   <g id="patch_100">
    <path clip-path="url(#p736375da9a)" d="M 88.875 252 
L 102.825 252 
L 102.825 252 
L 88.875 252 
z
" style="fill:#f0f921;"/>
   </g>
   <g id="patch_101">
    <path clip-path="url(#p736375da9a)" d="M 116.775 252 
L 130.725 252 
L 130.725 252 
L 116.775 252 
z
" style="fill:#f0f921;"/>
   </g>
   <g id="patch_102">
    <path clip-path="url(#p736375da9a)" d="M 144.675 252 
L 158.625 252 
L 158.625 252 
L 144.675 252 
z
" style="fill:#f0f921;"/>
   </g>
   <g id="patch_103">
    <path clip-path="url(#p736375da9a)" d="M 172.575 243.716571 
L 186.525 243.716571 
L 186.525 227.149714 
L 172.575 227.149714 
z
" style="fill:#f0f921;"/>
   </g>
   <g id="patch_104">
    <path clip-path="url(#p736375da9a)" d="M 200.475 152.598857 
L 214.425 152.598857 
L 214.425 144.315429 
L 200.475 144.315429 
z
" style="fill:#f0f921;"/>
   </g>
   <g id="patch_105">
    <path clip-path="url(#p736375da9a)" d="M 228.375 169.165714 
L 242.325 169.165714 
L 242.325 94.614857 
L 228.375 94.614857 
z
" style="fill:#f0f921;"/>
   </g>
   <g id="patch_106">
    <path clip-path="url(#p736375da9a)" d="M 256.275 185.732571 
L 270.225 185.732571 
L 270.225 61.481143 
L 256.275 61.481143 
z
" style="fill:#f0f921;"/>
   </g>
   <g id="patch_107">
    <path clip-path="url(#p736375da9a)" d="M 284.175 185.732571 
L 298.125 185.732571 
L 298.125 127.748571 
L 284.175 127.748571 
z
" style="fill:#f0f921;"/>
   </g>
   <g id="patch_108">
    <path clip-path="url(#p736375da9a)" d="M 312.075 160.882286 
L 326.025 160.882286 
L 326.025 53.197714 
L 312.075 53.197714 
z
" style="fill:#f0f921;"/>
   </g>
   <g id="patch_109">
    <path clip-path="url(#p736375da9a)" d="M 339.975 169.165714 
L 353.925 169.165714 
L 353.925 44.914286 
L 339.975 44.914286 
z
" style="fill:#f0f921;"/>
   </g>
   <g id="patch_110">
    <path clip-path="url(#p736375da9a)" d="M 367.875 194.016 
L 381.825 194.016 
L 381.825 136.032 
L 367.875 136.032 
z
" style="fill:#f0f921;"/>
   </g>
   <g id="matplotlib.axis_1">
    <g id="xtick_1">
     <g id="line2d_1">
      <defs>
       <path d="M 0 0 
L 0 3.5 
" id="m294d6a4cf2" style="stroke:#000000;stroke-width:0.8;"/>
      </defs>
      <g>
       <use style="stroke:#000000;stroke-width:0.8;" x="67.95" xlink:href="#m294d6a4cf2" y="252"/>
      </g>
     </g>
     <g id="text_1">
      <!-- 2004-2009 -->
      <defs>
       <path d="M 19.1875 8.296875 
L 53.609375 8.296875 
L 53.609375 0 
L 7.328125 0 
L 7.328125 8.296875 
Q 12.9375 14.109375 22.625 23.890625 
Q 32.328125 33.6875 34.8125 36.53125 
Q 39.546875 41.84375 41.421875 45.53125 
Q 43.3125 49.21875 43.3125 52.78125 
Q 43.3125 58.59375 39.234375 62.25 
Q 35.15625 65.921875 28.609375 65.921875 
Q 23.96875 65.921875 18.8125 64.3125 
Q 13.671875 62.703125 7.8125 59.421875 
L 7.8125 69.390625 
Q 13.765625 71.78125 18.9375 73 
Q 24.125 74.21875 28.421875 74.21875 
Q 39.75 74.21875 46.484375 68.546875 
Q 53.21875 62.890625 53.21875 53.421875 
Q 53.21875 48.921875 51.53125 44.890625 
Q 49.859375 40.875 45.40625 35.40625 
Q 44.1875 33.984375 37.640625 27.21875 
Q 31.109375 20.453125 19.1875 8.296875 
z
" id="DejaVuSans-50"/>
       <path d="M 31.78125 66.40625 
Q 24.171875 66.40625 20.328125 58.90625 
Q 16.5 51.421875 16.5 36.375 
Q 16.5 21.390625 20.328125 13.890625 
Q 24.171875 6.390625 31.78125 6.390625 
Q 39.453125 6.390625 43.28125 13.890625 
Q 47.125 21.390625 47.125 36.375 
Q 47.125 51.421875 43.28125 58.90625 
Q 39.453125 66.40625 31.78125 66.40625 
z
M 31.78125 74.21875 
Q 44.046875 74.21875 50.515625 64.515625 
Q 56.984375 54.828125 56.984375 36.375 
Q 56.984375 17.96875 50.515625 8.265625 
Q 44.046875 -1.421875 31.78125 -1.421875 
Q 19.53125 -1.421875 13.0625 8.265625 
Q 6.59375 17.96875 6.59375 36.375 
Q 6.59375 54.828125 13.0625 64.515625 
Q 19.53125 74.21875 31.78125 74.21875 
z
" id="DejaVuSans-48"/>
       <path d="M 37.796875 64.3125 
L 12.890625 25.390625 
L 37.796875 25.390625 
z
M 35.203125 72.90625 
L 47.609375 72.90625 
L 47.609375 25.390625 
L 58.015625 25.390625 
L 58.015625 17.1875 
L 47.609375 17.1875 
L 47.609375 0 
L 37.796875 0 
L 37.796875 17.1875 
L 4.890625 17.1875 
L 4.890625 26.703125 
z
" id="DejaVuSans-52"/>
       <path d="M 4.890625 31.390625 
L 31.203125 31.390625 
L 31.203125 23.390625 
L 4.890625 23.390625 
z
" id="DejaVuSans-45"/>
       <path d="M 10.984375 1.515625 
L 10.984375 10.5 
Q 14.703125 8.734375 18.5 7.8125 
Q 22.3125 6.890625 25.984375 6.890625 
Q 35.75 6.890625 40.890625 13.453125 
Q 46.046875 20.015625 46.78125 33.40625 
Q 43.953125 29.203125 39.59375 26.953125 
Q 35.25 24.703125 29.984375 24.703125 
Q 19.046875 24.703125 12.671875 31.3125 
Q 6.296875 37.9375 6.296875 49.421875 
Q 6.296875 60.640625 12.9375 67.421875 
Q 19.578125 74.21875 30.609375 74.21875 
Q 43.265625 74.21875 49.921875 64.515625 
Q 56.59375 54.828125 56.59375 36.375 
Q 56.59375 19.140625 48.40625 8.859375 
Q 40.234375 -1.421875 26.421875 -1.421875 
Q 22.703125 -1.421875 18.890625 -0.6875 
Q 15.09375 0.046875 10.984375 1.515625 
z
M 30.609375 32.421875 
Q 37.25 32.421875 41.125 36.953125 
Q 45.015625 41.5 45.015625 49.421875 
Q 45.015625 57.28125 41.125 61.84375 
Q 37.25 66.40625 30.609375 66.40625 
Q 23.96875 66.40625 20.09375 61.84375 
Q 16.21875 57.28125 16.21875 49.421875 
Q 16.21875 41.5 20.09375 36.953125 
Q 23.96875 32.421875 30.609375 32.421875 
z
" id="DejaVuSans-57"/>
      </defs>
      <g transform="translate(70.709375 313.507812)rotate(-90)scale(0.1 -0.1)">
       <use xlink:href="#DejaVuSans-50"/>
       <use x="63.623047" xlink:href="#DejaVuSans-48"/>
       <use x="127.246094" xlink:href="#DejaVuSans-48"/>
       <use x="190.869141" xlink:href="#DejaVuSans-52"/>
       <use x="254.492188" xlink:href="#DejaVuSans-45"/>
       <use x="290.576172" xlink:href="#DejaVuSans-50"/>
       <use x="354.199219" xlink:href="#DejaVuSans-48"/>
       <use x="417.822266" xlink:href="#DejaVuSans-48"/>
       <use x="481.445312" xlink:href="#DejaVuSans-57"/>
      </g>
     </g>
    </g>
    <g id="xtick_2">
     <g id="line2d_2">
      <g>
       <use style="stroke:#000000;stroke-width:0.8;" x="95.85" xlink:href="#m294d6a4cf2" y="252"/>
      </g>
     </g>
     <g id="text_2">
      <!-- 2010 -->
      <defs>
       <path d="M 12.40625 8.296875 
L 28.515625 8.296875 
L 28.515625 63.921875 
L 10.984375 60.40625 
L 10.984375 69.390625 
L 28.421875 72.90625 
L 38.28125 72.90625 
L 38.28125 8.296875 
L 54.390625 8.296875 
L 54.390625 0 
L 12.40625 0 
z
" id="DejaVuSans-49"/>
      </defs>
      <g transform="translate(98.609375 284.45)rotate(-90)scale(0.1 -0.1)">
       <use xlink:href="#DejaVuSans-50"/>
       <use x="63.623047" xlink:href="#DejaVuSans-48"/>
       <use x="127.246094" xlink:href="#DejaVuSans-49"/>
       <use x="190.869141" xlink:href="#DejaVuSans-48"/>
      </g>
     </g>
    </g>
    <g id="xtick_3">
     <g id="line2d_3">
      <g>
       <use style="stroke:#000000;stroke-width:0.8;" x="123.75" xlink:href="#m294d6a4cf2" y="252"/>
      </g>
     </g>
     <g id="text_3">
      <!-- 2011 -->
      <g transform="translate(126.509375 284.45)rotate(-90)scale(0.1 -0.1)">
       <use xlink:href="#DejaVuSans-50"/>
       <use x="63.623047" xlink:href="#DejaVuSans-48"/>
       <use x="127.246094" xlink:href="#DejaVuSans-49"/>
       <use x="190.869141" xlink:href="#DejaVuSans-49"/>
      </g>
     </g>
    </g>
    <g id="xtick_4">
     <g id="line2d_4">
      <g>
       <use style="stroke:#000000;stroke-width:0.8;" x="151.65" xlink:href="#m294d6a4cf2" y="252"/>
      </g>
     </g>
     <g id="text_4">
      <!-- 2012 -->
      <g transform="translate(154.409375 284.45)rotate(-90)scale(0.1 -0.1)">
       <use xlink:href="#DejaVuSans-50"/>
       <use x="63.623047" xlink:href="#DejaVuSans-48"/>
       <use x="127.246094" xlink:href="#DejaVuSans-49"/>
       <use x="190.869141" xlink:href="#DejaVuSans-50"/>
      </g>
     </g>
    </g>
    <g id="xtick_5">
     <g id="line2d_5">
      <g>
       <use style="stroke:#000000;stroke-width:0.8;" x="179.55" xlink:href="#m294d6a4cf2" y="252"/>
      </g>
     </g>
     <g id="text_5">
      <!-- 2013 -->
      <defs>
       <path d="M 40.578125 39.3125 
Q 47.65625 37.796875 51.625 33 
Q 55.609375 28.21875 55.609375 21.1875 
Q 55.609375 10.40625 48.1875 4.484375 
Q 40.765625 -1.421875 27.09375 -1.421875 
Q 22.515625 -1.421875 17.65625 -0.515625 
Q 12.796875 0.390625 7.625 2.203125 
L 7.625 11.71875 
Q 11.71875 9.328125 16.59375 8.109375 
Q 21.484375 6.890625 26.8125 6.890625 
Q 36.078125 6.890625 40.9375 10.546875 
Q 45.796875 14.203125 45.796875 21.1875 
Q 45.796875 27.640625 41.28125 31.265625 
Q 36.765625 34.90625 28.71875 34.90625 
L 20.21875 34.90625 
L 20.21875 43.015625 
L 29.109375 43.015625 
Q 36.375 43.015625 40.234375 45.921875 
Q 44.09375 48.828125 44.09375 54.296875 
Q 44.09375 59.90625 40.109375 62.90625 
Q 36.140625 65.921875 28.71875 65.921875 
Q 24.65625 65.921875 20.015625 65.03125 
Q 15.375 64.15625 9.8125 62.3125 
L 9.8125 71.09375 
Q 15.4375 72.65625 20.34375 73.4375 
Q 25.25 74.21875 29.59375 74.21875 
Q 40.828125 74.21875 47.359375 69.109375 
Q 53.90625 64.015625 53.90625 55.328125 
Q 53.90625 49.265625 50.4375 45.09375 
Q 46.96875 40.921875 40.578125 39.3125 
z
" id="DejaVuSans-51"/>
      </defs>
      <g transform="translate(182.309375 284.45)rotate(-90)scale(0.1 -0.1)">
       <use xlink:href="#DejaVuSans-50"/>
       <use x="63.623047" xlink:href="#DejaVuSans-48"/>
       <use x="127.246094" xlink:href="#DejaVuSans-49"/>
       <use x="190.869141" xlink:href="#DejaVuSans-51"/>
      </g>
     </g>
    </g>
    <g id="xtick_6">
     <g id="line2d_6">
      <g>
       <use style="stroke:#000000;stroke-width:0.8;" x="207.45" xlink:href="#m294d6a4cf2" y="252"/>
      </g>
     </g>
     <g id="text_6">
      <!-- 2014 -->
      <g transform="translate(210.209375 284.45)rotate(-90)scale(0.1 -0.1)">
       <use xlink:href="#DejaVuSans-50"/>
       <use x="63.623047" xlink:href="#DejaVuSans-48"/>
       <use x="127.246094" xlink:href="#DejaVuSans-49"/>
       <use x="190.869141" xlink:href="#DejaVuSans-52"/>
      </g>
     </g>
    </g>
    <g id="xtick_7">
     <g id="line2d_7">
      <g>
       <use style="stroke:#000000;stroke-width:0.8;" x="235.35" xlink:href="#m294d6a4cf2" y="252"/>
      </g>
     </g>
     <g id="text_7">
      <!-- 2015 -->
      <defs>
       <path d="M 10.796875 72.90625 
L 49.515625 72.90625 
L 49.515625 64.59375 
L 19.828125 64.59375 
L 19.828125 46.734375 
Q 21.96875 47.46875 24.109375 47.828125 
Q 26.265625 48.1875 28.421875 48.1875 
Q 40.625 48.1875 47.75 41.5 
Q 54.890625 34.8125 54.890625 23.390625 
Q 54.890625 11.625 47.5625 5.09375 
Q 40.234375 -1.421875 26.90625 -1.421875 
Q 22.3125 -1.421875 17.546875 -0.640625 
Q 12.796875 0.140625 7.71875 1.703125 
L 7.71875 11.625 
Q 12.109375 9.234375 16.796875 8.0625 
Q 21.484375 6.890625 26.703125 6.890625 
Q 35.15625 6.890625 40.078125 11.328125 
Q 45.015625 15.765625 45.015625 23.390625 
Q 45.015625 31 40.078125 35.4375 
Q 35.15625 39.890625 26.703125 39.890625 
Q 22.75 39.890625 18.8125 39.015625 
Q 14.890625 38.140625 10.796875 36.28125 
z
" id="DejaVuSans-53"/>
      </defs>
      <g transform="translate(238.109375 284.45)rotate(-90)scale(0.1 -0.1)">
       <use xlink:href="#DejaVuSans-50"/>
       <use x="63.623047" xlink:href="#DejaVuSans-48"/>
       <use x="127.246094" xlink:href="#DejaVuSans-49"/>
       <use x="190.869141" xlink:href="#DejaVuSans-53"/>
      </g>
     </g>
    </g>
    <g id="xtick_8">
     <g id="line2d_8">
      <g>
       <use style="stroke:#000000;stroke-width:0.8;" x="263.25" xlink:href="#m294d6a4cf2" y="252"/>
      </g>
     </g>
     <g id="text_8">
      <!-- 2016 -->
      <defs>
       <path d="M 33.015625 40.375 
Q 26.375 40.375 22.484375 35.828125 
Q 18.609375 31.296875 18.609375 23.390625 
Q 18.609375 15.53125 22.484375 10.953125 
Q 26.375 6.390625 33.015625 6.390625 
Q 39.65625 6.390625 43.53125 10.953125 
Q 47.40625 15.53125 47.40625 23.390625 
Q 47.40625 31.296875 43.53125 35.828125 
Q 39.65625 40.375 33.015625 40.375 
z
M 52.59375 71.296875 
L 52.59375 62.3125 
Q 48.875 64.0625 45.09375 64.984375 
Q 41.3125 65.921875 37.59375 65.921875 
Q 27.828125 65.921875 22.671875 59.328125 
Q 17.53125 52.734375 16.796875 39.40625 
Q 19.671875 43.65625 24.015625 45.921875 
Q 28.375 48.1875 33.59375 48.1875 
Q 44.578125 48.1875 50.953125 41.515625 
Q 57.328125 34.859375 57.328125 23.390625 
Q 57.328125 12.15625 50.6875 5.359375 
Q 44.046875 -1.421875 33.015625 -1.421875 
Q 20.359375 -1.421875 13.671875 8.265625 
Q 6.984375 17.96875 6.984375 36.375 
Q 6.984375 53.65625 15.1875 63.9375 
Q 23.390625 74.21875 37.203125 74.21875 
Q 40.921875 74.21875 44.703125 73.484375 
Q 48.484375 72.75 52.59375 71.296875 
z
" id="DejaVuSans-54"/>
      </defs>
      <g transform="translate(266.009375 284.45)rotate(-90)scale(0.1 -0.1)">
       <use xlink:href="#DejaVuSans-50"/>
       <use x="63.623047" xlink:href="#DejaVuSans-48"/>
       <use x="127.246094" xlink:href="#DejaVuSans-49"/>
       <use x="190.869141" xlink:href="#DejaVuSans-54"/>
      </g>
     </g>
    </g>
    <g id="xtick_9">
     <g id="line2d_9">
      <g>
       <use style="stroke:#000000;stroke-width:0.8;" x="291.15" xlink:href="#m294d6a4cf2" y="252"/>
      </g>
     </g>
     <g id="text_9">
      <!-- 2017 -->
      <defs>
       <path d="M 8.203125 72.90625 
L 55.078125 72.90625 
L 55.078125 68.703125 
L 28.609375 0 
L 18.3125 0 
L 43.21875 64.59375 
L 8.203125 64.59375 
z
" id="DejaVuSans-55"/>
      </defs>
      <g transform="translate(293.909375 284.45)rotate(-90)scale(0.1 -0.1)">
       <use xlink:href="#DejaVuSans-50"/>
       <use x="63.623047" xlink:href="#DejaVuSans-48"/>
       <use x="127.246094" xlink:href="#DejaVuSans-49"/>
       <use x="190.869141" xlink:href="#DejaVuSans-55"/>
      </g>
     </g>
    </g>
    <g id="xtick_10">
     <g id="line2d_10">
      <g>
       <use style="stroke:#000000;stroke-width:0.8;" x="319.05" xlink:href="#m294d6a4cf2" y="252"/>
      </g>
     </g>
     <g id="text_10">
      <!-- 2018 -->
      <defs>
       <path d="M 31.78125 34.625 
Q 24.75 34.625 20.71875 30.859375 
Q 16.703125 27.09375 16.703125 20.515625 
Q 16.703125 13.921875 20.71875 10.15625 
Q 24.75 6.390625 31.78125 6.390625 
Q 38.8125 6.390625 42.859375 10.171875 
Q 46.921875 13.96875 46.921875 20.515625 
Q 46.921875 27.09375 42.890625 30.859375 
Q 38.875 34.625 31.78125 34.625 
z
M 21.921875 38.8125 
Q 15.578125 40.375 12.03125 44.71875 
Q 8.5 49.078125 8.5 55.328125 
Q 8.5 64.0625 14.71875 69.140625 
Q 20.953125 74.21875 31.78125 74.21875 
Q 42.671875 74.21875 48.875 69.140625 
Q 55.078125 64.0625 55.078125 55.328125 
Q 55.078125 49.078125 51.53125 44.71875 
Q 48 40.375 41.703125 38.8125 
Q 48.828125 37.15625 52.796875 32.3125 
Q 56.78125 27.484375 56.78125 20.515625 
Q 56.78125 9.90625 50.3125 4.234375 
Q 43.84375 -1.421875 31.78125 -1.421875 
Q 19.734375 -1.421875 13.25 4.234375 
Q 6.78125 9.90625 6.78125 20.515625 
Q 6.78125 27.484375 10.78125 32.3125 
Q 14.796875 37.15625 21.921875 38.8125 
z
M 18.3125 54.390625 
Q 18.3125 48.734375 21.84375 45.5625 
Q 25.390625 42.390625 31.78125 42.390625 
Q 38.140625 42.390625 41.71875 45.5625 
Q 45.3125 48.734375 45.3125 54.390625 
Q 45.3125 60.0625 41.71875 63.234375 
Q 38.140625 66.40625 31.78125 66.40625 
Q 25.390625 66.40625 21.84375 63.234375 
Q 18.3125 60.0625 18.3125 54.390625 
z
" id="DejaVuSans-56"/>
      </defs>
      <g transform="translate(321.809375 284.45)rotate(-90)scale(0.1 -0.1)">
       <use xlink:href="#DejaVuSans-50"/>
       <use x="63.623047" xlink:href="#DejaVuSans-48"/>
       <use x="127.246094" xlink:href="#DejaVuSans-49"/>
       <use x="190.869141" xlink:href="#DejaVuSans-56"/>
      </g>
     </g>
    </g>
    <g id="xtick_11">
     <g id="line2d_11">
      <g>
       <use style="stroke:#000000;stroke-width:0.8;" x="346.95" xlink:href="#m294d6a4cf2" y="252"/>
      </g>
     </g>
     <g id="text_11">
      <!-- 2019 -->
      <g transform="translate(349.709375 284.45)rotate(-90)scale(0.1 -0.1)">
       <use xlink:href="#DejaVuSans-50"/>
       <use x="63.623047" xlink:href="#DejaVuSans-48"/>
       <use x="127.246094" xlink:href="#DejaVuSans-49"/>
       <use x="190.869141" xlink:href="#DejaVuSans-57"/>
      </g>
     </g>
    </g>
    <g id="xtick_12">
     <g id="line2d_12">
      <g>
       <use style="stroke:#000000;stroke-width:0.8;" x="374.85" xlink:href="#m294d6a4cf2" y="252"/>
      </g>
     </g>
     <g id="text_12">
      <!-- 2020 -->
      <g transform="translate(377.609375 284.45)rotate(-90)scale(0.1 -0.1)">
       <use xlink:href="#DejaVuSans-50"/>
       <use x="63.623047" xlink:href="#DejaVuSans-48"/>
       <use x="127.246094" xlink:href="#DejaVuSans-50"/>
       <use x="190.869141" xlink:href="#DejaVuSans-48"/>
      </g>
     </g>
    </g>
    <g id="text_13">
     <!-- wtype -->
     <defs>
      <path d="M 4.203125 54.6875 
L 13.1875 54.6875 
L 24.421875 12.015625 
L 35.59375 54.6875 
L 46.1875 54.6875 
L 57.421875 12.015625 
L 68.609375 54.6875 
L 77.59375 54.6875 
L 63.28125 0 
L 52.6875 0 
L 40.921875 44.828125 
L 29.109375 0 
L 18.5 0 
z
" id="DejaVuSans-119"/>
      <path d="M 18.3125 70.21875 
L 18.3125 54.6875 
L 36.8125 54.6875 
L 36.8125 47.703125 
L 18.3125 47.703125 
L 18.3125 18.015625 
Q 18.3125 11.328125 20.140625 9.421875 
Q 21.96875 7.515625 27.59375 7.515625 
L 36.8125 7.515625 
L 36.8125 0 
L 27.59375 0 
Q 17.1875 0 13.234375 3.875 
Q 9.28125 7.765625 9.28125 18.015625 
L 9.28125 47.703125 
L 2.6875 47.703125 
L 2.6875 54.6875 
L 9.28125 54.6875 
L 9.28125 70.21875 
z
" id="DejaVuSans-116"/>
      <path d="M 32.171875 -5.078125 
Q 28.375 -14.84375 24.75 -17.8125 
Q 21.140625 -20.796875 15.09375 -20.796875 
L 7.90625 -20.796875 
L 7.90625 -13.28125 
L 13.1875 -13.28125 
Q 16.890625 -13.28125 18.9375 -11.515625 
Q 21 -9.765625 23.484375 -3.21875 
L 25.09375 0.875 
L 2.984375 54.6875 
L 12.5 54.6875 
L 29.59375 11.921875 
L 46.6875 54.6875 
L 56.203125 54.6875 
z
" id="DejaVuSans-121"/>
      <path d="M 18.109375 8.203125 
L 18.109375 -20.796875 
L 9.078125 -20.796875 
L 9.078125 54.6875 
L 18.109375 54.6875 
L 18.109375 46.390625 
Q 20.953125 51.265625 25.265625 53.625 
Q 29.59375 56 35.59375 56 
Q 45.5625 56 51.78125 48.09375 
Q 58.015625 40.1875 58.015625 27.296875 
Q 58.015625 14.40625 51.78125 6.484375 
Q 45.5625 -1.421875 35.59375 -1.421875 
Q 29.59375 -1.421875 25.265625 0.953125 
Q 20.953125 3.328125 18.109375 8.203125 
z
M 48.6875 27.296875 
Q 48.6875 37.203125 44.609375 42.84375 
Q 40.53125 48.484375 33.40625 48.484375 
Q 26.265625 48.484375 22.1875 42.84375 
Q 18.109375 37.203125 18.109375 27.296875 
Q 18.109375 17.390625 22.1875 11.75 
Q 26.265625 6.109375 33.40625 6.109375 
Q 40.53125 6.109375 44.609375 11.75 
Q 48.6875 17.390625 48.6875 27.296875 
z
" id="DejaVuSans-112"/>
      <path d="M 56.203125 29.59375 
L 56.203125 25.203125 
L 14.890625 25.203125 
Q 15.484375 15.921875 20.484375 11.0625 
Q 25.484375 6.203125 34.421875 6.203125 
Q 39.59375 6.203125 44.453125 7.46875 
Q 49.3125 8.734375 54.109375 11.28125 
L 54.109375 2.78125 
Q 49.265625 0.734375 44.1875 -0.34375 
Q 39.109375 -1.421875 33.890625 -1.421875 
Q 20.796875 -1.421875 13.15625 6.1875 
Q 5.515625 13.8125 5.515625 26.8125 
Q 5.515625 40.234375 12.765625 48.109375 
Q 20.015625 56 32.328125 56 
Q 43.359375 56 49.78125 48.890625 
Q 56.203125 41.796875 56.203125 29.59375 
z
M 47.21875 32.234375 
Q 47.125 39.59375 43.09375 43.984375 
Q 39.0625 48.390625 32.421875 48.390625 
Q 24.90625 48.390625 20.390625 44.140625 
Q 15.875 39.890625 15.1875 32.171875 
z
" id="DejaVuSans-101"/>
     </defs>
     <g transform="translate(206.140625 325.10625)scale(0.1 -0.1)">
      <use xlink:href="#DejaVuSans-119"/>
      <use x="81.787109" xlink:href="#DejaVuSans-116"/>
      <use x="120.996094" xlink:href="#DejaVuSans-121"/>
      <use x="180.175781" xlink:href="#DejaVuSans-112"/>
      <use x="243.652344" xlink:href="#DejaVuSans-101"/>
     </g>
    </g>
   </g>
   <g id="matplotlib.axis_2">
    <g id="ytick_1">
     <g id="line2d_13">
      <defs>
       <path d="M 0 0 
L -3.5 0 
" id="m85efb82670" style="stroke:#000000;stroke-width:0.8;"/>
      </defs>
      <g>
       <use style="stroke:#000000;stroke-width:0.8;" x="54" xlink:href="#m85efb82670" y="252"/>
      </g>
     </g>
     <g id="text_14">
      <!-- 0 -->
      <g transform="translate(40.6375 255.799219)scale(0.1 -0.1)">
       <use xlink:href="#DejaVuSans-48"/>
      </g>
     </g>
    </g>
    <g id="ytick_2">
     <g id="line2d_14">
      <g>
       <use style="stroke:#000000;stroke-width:0.8;" x="54" xlink:href="#m85efb82670" y="210.582857"/>
      </g>
     </g>
     <g id="text_15">
      <!-- 5 -->
      <g transform="translate(40.6375 214.382076)scale(0.1 -0.1)">
       <use xlink:href="#DejaVuSans-53"/>
      </g>
     </g>
    </g>
    <g id="ytick_3">
     <g id="line2d_15">
      <g>
       <use style="stroke:#000000;stroke-width:0.8;" x="54" xlink:href="#m85efb82670" y="169.165714"/>
      </g>
     </g>
     <g id="text_16">
      <!-- 10 -->
      <g transform="translate(34.275 172.964933)scale(0.1 -0.1)">
       <use xlink:href="#DejaVuSans-49"/>
       <use x="63.623047" xlink:href="#DejaVuSans-48"/>
      </g>
     </g>
    </g>
    <g id="ytick_4">
     <g id="line2d_16">
      <g>
       <use style="stroke:#000000;stroke-width:0.8;" x="54" xlink:href="#m85efb82670" y="127.748571"/>
      </g>
     </g>
     <g id="text_17">
      <!-- 15 -->
      <g transform="translate(34.275 131.54779)scale(0.1 -0.1)">
       <use xlink:href="#DejaVuSans-49"/>
       <use x="63.623047" xlink:href="#DejaVuSans-53"/>
      </g>
     </g>
    </g>
    <g id="ytick_5">
     <g id="line2d_17">
      <g>
       <use style="stroke:#000000;stroke-width:0.8;" x="54" xlink:href="#m85efb82670" y="86.331429"/>
      </g>
     </g>
     <g id="text_18">
      <!-- 20 -->
      <g transform="translate(34.275 90.130647)scale(0.1 -0.1)">
       <use xlink:href="#DejaVuSans-50"/>
       <use x="63.623047" xlink:href="#DejaVuSans-48"/>
      </g>
     </g>
    </g>
    <g id="ytick_6">
     <g id="line2d_18">
      <g>
       <use style="stroke:#000000;stroke-width:0.8;" x="54" xlink:href="#m85efb82670" y="44.914286"/>
      </g>
     </g>
     <g id="text_19">
      <!-- 25 -->
      <g transform="translate(34.275 48.713504)scale(0.1 -0.1)">
       <use xlink:href="#DejaVuSans-50"/>
       <use x="63.623047" xlink:href="#DejaVuSans-53"/>
      </g>
     </g>
    </g>
   </g>
   <g id="patch_111">
    <path d="M 54 252 
L 54 34.56 
" style="fill:none;stroke:#000000;stroke-linecap:square;stroke-linejoin:miter;stroke-width:0.8;"/>
   </g>
   <g id="patch_112">
    <path d="M 388.8 252 
L 388.8 34.56 
" style="fill:none;stroke:#000000;stroke-linecap:square;stroke-linejoin:miter;stroke-width:0.8;"/>
   </g>
   <g id="patch_113">
    <path d="M 54 252 
L 388.8 252 
" style="fill:none;stroke:#000000;stroke-linecap:square;stroke-linejoin:miter;stroke-width:0.8;"/>
   </g>
   <g id="patch_114">
    <path d="M 54 34.56 
L 388.8 34.56 
" style="fill:none;stroke:#000000;stroke-linecap:square;stroke-linejoin:miter;stroke-width:0.8;"/>
   </g>
   <g id="legend_1">
    <g id="patch_115">
     <path d="M 61 189.34125 
L 188.64375 189.34125 
Q 190.64375 189.34125 190.64375 187.34125 
L 190.64375 41.56 
Q 190.64375 39.56 188.64375 39.56 
L 61 39.56 
Q 59 39.56 59 41.56 
L 59 187.34125 
Q 59 189.34125 61 189.34125 
z
" style="fill:#ffffff;opacity:0.8;stroke:#cccccc;stroke-linejoin:miter;"/>
    </g>
    <g id="text_20">
     <!-- Matos -->
     <defs>
      <path d="M 9.8125 72.90625 
L 24.515625 72.90625 
L 43.109375 23.296875 
L 61.8125 72.90625 
L 76.515625 72.90625 
L 76.515625 0 
L 66.890625 0 
L 66.890625 64.015625 
L 48.09375 14.015625 
L 38.1875 14.015625 
L 19.390625 64.015625 
L 19.390625 0 
L 9.8125 0 
z
" id="DejaVuSans-77"/>
      <path d="M 34.28125 27.484375 
Q 23.390625 27.484375 19.1875 25 
Q 14.984375 22.515625 14.984375 16.5 
Q 14.984375 11.71875 18.140625 8.90625 
Q 21.296875 6.109375 26.703125 6.109375 
Q 34.1875 6.109375 38.703125 11.40625 
Q 43.21875 16.703125 43.21875 25.484375 
L 43.21875 27.484375 
z
M 52.203125 31.203125 
L 52.203125 0 
L 43.21875 0 
L 43.21875 8.296875 
Q 40.140625 3.328125 35.546875 0.953125 
Q 30.953125 -1.421875 24.3125 -1.421875 
Q 15.921875 -1.421875 10.953125 3.296875 
Q 6 8.015625 6 15.921875 
Q 6 25.140625 12.171875 29.828125 
Q 18.359375 34.515625 30.609375 34.515625 
L 43.21875 34.515625 
L 43.21875 35.40625 
Q 43.21875 41.609375 39.140625 45 
Q 35.0625 48.390625 27.6875 48.390625 
Q 23 48.390625 18.546875 47.265625 
Q 14.109375 46.140625 10.015625 43.890625 
L 10.015625 52.203125 
Q 14.9375 54.109375 19.578125 55.046875 
Q 24.21875 56 28.609375 56 
Q 40.484375 56 46.34375 49.84375 
Q 52.203125 43.703125 52.203125 31.203125 
z
" id="DejaVuSans-97"/>
      <path d="M 30.609375 48.390625 
Q 23.390625 48.390625 19.1875 42.75 
Q 14.984375 37.109375 14.984375 27.296875 
Q 14.984375 17.484375 19.15625 11.84375 
Q 23.34375 6.203125 30.609375 6.203125 
Q 37.796875 6.203125 41.984375 11.859375 
Q 46.1875 17.53125 46.1875 27.296875 
Q 46.1875 37.015625 41.984375 42.703125 
Q 37.796875 48.390625 30.609375 48.390625 
z
M 30.609375 56 
Q 42.328125 56 49.015625 48.375 
Q 55.71875 40.765625 55.71875 27.296875 
Q 55.71875 13.875 49.015625 6.21875 
Q 42.328125 -1.421875 30.609375 -1.421875 
Q 18.84375 -1.421875 12.171875 6.21875 
Q 5.515625 13.875 5.515625 27.296875 
Q 5.515625 40.765625 12.171875 48.375 
Q 18.84375 56 30.609375 56 
z
" id="DejaVuSans-111"/>
      <path d="M 44.28125 53.078125 
L 44.28125 44.578125 
Q 40.484375 46.53125 36.375 47.5 
Q 32.28125 48.484375 27.875 48.484375 
Q 21.1875 48.484375 17.84375 46.4375 
Q 14.5 44.390625 14.5 40.28125 
Q 14.5 37.15625 16.890625 35.375 
Q 19.28125 33.59375 26.515625 31.984375 
L 29.59375 31.296875 
Q 39.15625 29.25 43.1875 25.515625 
Q 47.21875 21.78125 47.21875 15.09375 
Q 47.21875 7.46875 41.1875 3.015625 
Q 35.15625 -1.421875 24.609375 -1.421875 
Q 20.21875 -1.421875 15.453125 -0.5625 
Q 10.6875 0.296875 5.421875 2 
L 5.421875 11.28125 
Q 10.40625 8.6875 15.234375 7.390625 
Q 20.0625 6.109375 24.8125 6.109375 
Q 31.15625 6.109375 34.5625 8.28125 
Q 37.984375 10.453125 37.984375 14.40625 
Q 37.984375 18.0625 35.515625 20.015625 
Q 33.0625 21.96875 24.703125 23.78125 
L 21.578125 24.515625 
Q 13.234375 26.265625 9.515625 29.90625 
Q 5.8125 33.546875 5.8125 39.890625 
Q 5.8125 47.609375 11.28125 51.796875 
Q 16.75 56 26.8125 56 
Q 31.78125 56 36.171875 55.265625 
Q 40.578125 54.546875 44.28125 53.078125 
z
" id="DejaVuSans-115"/>
     </defs>
     <g transform="translate(109.819531 51.158437)scale(0.1 -0.1)">
      <use xlink:href="#DejaVuSans-77"/>
      <use x="86.279297" xlink:href="#DejaVuSans-97"/>
      <use x="147.558594" xlink:href="#DejaVuSans-116"/>
      <use x="186.767578" xlink:href="#DejaVuSans-111"/>
      <use x="247.949219" xlink:href="#DejaVuSans-115"/>
     </g>
    </g>
    <g id="patch_116">
     <path d="M 63 65.836563 
L 83 65.836563 
L 83 58.836563 
L 63 58.836563 
z
" style="fill:#0d0887;"/>
    </g>
    <g id="text_21">
     <!-- - -->
     <g transform="translate(91 65.836563)scale(0.1 -0.1)">
      <use xlink:href="#DejaVuSans-45"/>
     </g>
    </g>
    <g id="patch_117">
     <path d="M 63 80.514688 
L 83 80.514688 
L 83 73.514688 
L 63 73.514688 
z
" style="fill:#4c02a1;"/>
    </g>
    <g id="text_22">
     <!-- tangible(s) -->
     <defs>
      <path d="M 54.890625 33.015625 
L 54.890625 0 
L 45.90625 0 
L 45.90625 32.71875 
Q 45.90625 40.484375 42.875 44.328125 
Q 39.84375 48.1875 33.796875 48.1875 
Q 26.515625 48.1875 22.3125 43.546875 
Q 18.109375 38.921875 18.109375 30.90625 
L 18.109375 0 
L 9.078125 0 
L 9.078125 54.6875 
L 18.109375 54.6875 
L 18.109375 46.1875 
Q 21.34375 51.125 25.703125 53.5625 
Q 30.078125 56 35.796875 56 
Q 45.21875 56 50.046875 50.171875 
Q 54.890625 44.34375 54.890625 33.015625 
z
" id="DejaVuSans-110"/>
      <path d="M 45.40625 27.984375 
Q 45.40625 37.75 41.375 43.109375 
Q 37.359375 48.484375 30.078125 48.484375 
Q 22.859375 48.484375 18.828125 43.109375 
Q 14.796875 37.75 14.796875 27.984375 
Q 14.796875 18.265625 18.828125 12.890625 
Q 22.859375 7.515625 30.078125 7.515625 
Q 37.359375 7.515625 41.375 12.890625 
Q 45.40625 18.265625 45.40625 27.984375 
z
M 54.390625 6.78125 
Q 54.390625 -7.171875 48.1875 -13.984375 
Q 42 -20.796875 29.203125 -20.796875 
Q 24.46875 -20.796875 20.265625 -20.09375 
Q 16.0625 -19.390625 12.109375 -17.921875 
L 12.109375 -9.1875 
Q 16.0625 -11.328125 19.921875 -12.34375 
Q 23.78125 -13.375 27.78125 -13.375 
Q 36.625 -13.375 41.015625 -8.765625 
Q 45.40625 -4.15625 45.40625 5.171875 
L 45.40625 9.625 
Q 42.625 4.78125 38.28125 2.390625 
Q 33.9375 0 27.875 0 
Q 17.828125 0 11.671875 7.65625 
Q 5.515625 15.328125 5.515625 27.984375 
Q 5.515625 40.671875 11.671875 48.328125 
Q 17.828125 56 27.875 56 
Q 33.9375 56 38.28125 53.609375 
Q 42.625 51.21875 45.40625 46.390625 
L 45.40625 54.6875 
L 54.390625 54.6875 
z
" id="DejaVuSans-103"/>
      <path d="M 9.421875 54.6875 
L 18.40625 54.6875 
L 18.40625 0 
L 9.421875 0 
z
M 9.421875 75.984375 
L 18.40625 75.984375 
L 18.40625 64.59375 
L 9.421875 64.59375 
z
" id="DejaVuSans-105"/>
      <path d="M 48.6875 27.296875 
Q 48.6875 37.203125 44.609375 42.84375 
Q 40.53125 48.484375 33.40625 48.484375 
Q 26.265625 48.484375 22.1875 42.84375 
Q 18.109375 37.203125 18.109375 27.296875 
Q 18.109375 17.390625 22.1875 11.75 
Q 26.265625 6.109375 33.40625 6.109375 
Q 40.53125 6.109375 44.609375 11.75 
Q 48.6875 17.390625 48.6875 27.296875 
z
M 18.109375 46.390625 
Q 20.953125 51.265625 25.265625 53.625 
Q 29.59375 56 35.59375 56 
Q 45.5625 56 51.78125 48.09375 
Q 58.015625 40.1875 58.015625 27.296875 
Q 58.015625 14.40625 51.78125 6.484375 
Q 45.5625 -1.421875 35.59375 -1.421875 
Q 29.59375 -1.421875 25.265625 0.953125 
Q 20.953125 3.328125 18.109375 8.203125 
L 18.109375 0 
L 9.078125 0 
L 9.078125 75.984375 
L 18.109375 75.984375 
z
" id="DejaVuSans-98"/>
      <path d="M 9.421875 75.984375 
L 18.40625 75.984375 
L 18.40625 0 
L 9.421875 0 
z
" id="DejaVuSans-108"/>
      <path d="M 31 75.875 
Q 24.46875 64.65625 21.28125 53.65625 
Q 18.109375 42.671875 18.109375 31.390625 
Q 18.109375 20.125 21.3125 9.0625 
Q 24.515625 -2 31 -13.1875 
L 23.1875 -13.1875 
Q 15.875 -1.703125 12.234375 9.375 
Q 8.59375 20.453125 8.59375 31.390625 
Q 8.59375 42.28125 12.203125 53.3125 
Q 15.828125 64.359375 23.1875 75.875 
z
" id="DejaVuSans-40"/>
      <path d="M 8.015625 75.875 
L 15.828125 75.875 
Q 23.140625 64.359375 26.78125 53.3125 
Q 30.421875 42.28125 30.421875 31.390625 
Q 30.421875 20.453125 26.78125 9.375 
Q 23.140625 -1.703125 15.828125 -13.1875 
L 8.015625 -13.1875 
Q 14.5 -2 17.703125 9.0625 
Q 20.90625 20.125 20.90625 31.390625 
Q 20.90625 42.671875 17.703125 53.65625 
Q 14.5 64.65625 8.015625 75.875 
z
" id="DejaVuSans-41"/>
     </defs>
     <g transform="translate(91 80.514688)scale(0.1 -0.1)">
      <use xlink:href="#DejaVuSans-116"/>
      <use x="39.208984" xlink:href="#DejaVuSans-97"/>
      <use x="100.488281" xlink:href="#DejaVuSans-110"/>
      <use x="163.867188" xlink:href="#DejaVuSans-103"/>
      <use x="227.34375" xlink:href="#DejaVuSans-105"/>
      <use x="255.126953" xlink:href="#DejaVuSans-98"/>
      <use x="318.603516" xlink:href="#DejaVuSans-108"/>
      <use x="346.386719" xlink:href="#DejaVuSans-101"/>
      <use x="407.910156" xlink:href="#DejaVuSans-40"/>
      <use x="446.923828" xlink:href="#DejaVuSans-115"/>
      <use x="499.023438" xlink:href="#DejaVuSans-41"/>
     </g>
    </g>
    <g id="patch_118">
     <path d="M 63 95.192813 
L 83 95.192813 
L 83 88.192813 
L 63 88.192813 
z
" style="fill:#7e03a8;"/>
    </g>
    <g id="text_23">
     <!-- tangible(s)+screen -->
     <defs>
      <path d="M 46 62.703125 
L 46 35.5 
L 73.1875 35.5 
L 73.1875 27.203125 
L 46 27.203125 
L 46 0 
L 37.796875 0 
L 37.796875 27.203125 
L 10.59375 27.203125 
L 10.59375 35.5 
L 37.796875 35.5 
L 37.796875 62.703125 
z
" id="DejaVuSans-43"/>
      <path d="M 48.78125 52.59375 
L 48.78125 44.1875 
Q 44.96875 46.296875 41.140625 47.34375 
Q 37.3125 48.390625 33.40625 48.390625 
Q 24.65625 48.390625 19.8125 42.84375 
Q 14.984375 37.3125 14.984375 27.296875 
Q 14.984375 17.28125 19.8125 11.734375 
Q 24.65625 6.203125 33.40625 6.203125 
Q 37.3125 6.203125 41.140625 7.25 
Q 44.96875 8.296875 48.78125 10.40625 
L 48.78125 2.09375 
Q 45.015625 0.34375 40.984375 -0.53125 
Q 36.96875 -1.421875 32.421875 -1.421875 
Q 20.0625 -1.421875 12.78125 6.34375 
Q 5.515625 14.109375 5.515625 27.296875 
Q 5.515625 40.671875 12.859375 48.328125 
Q 20.21875 56 33.015625 56 
Q 37.15625 56 41.109375 55.140625 
Q 45.0625 54.296875 48.78125 52.59375 
z
" id="DejaVuSans-99"/>
      <path d="M 41.109375 46.296875 
Q 39.59375 47.171875 37.8125 47.578125 
Q 36.03125 48 33.890625 48 
Q 26.265625 48 22.1875 43.046875 
Q 18.109375 38.09375 18.109375 28.8125 
L 18.109375 0 
L 9.078125 0 
L 9.078125 54.6875 
L 18.109375 54.6875 
L 18.109375 46.1875 
Q 20.953125 51.171875 25.484375 53.578125 
Q 30.03125 56 36.53125 56 
Q 37.453125 56 38.578125 55.875 
Q 39.703125 55.765625 41.0625 55.515625 
z
" id="DejaVuSans-114"/>
     </defs>
     <g transform="translate(91 95.192813)scale(0.1 -0.1)">
      <use xlink:href="#DejaVuSans-116"/>
      <use x="39.208984" xlink:href="#DejaVuSans-97"/>
      <use x="100.488281" xlink:href="#DejaVuSans-110"/>
      <use x="163.867188" xlink:href="#DejaVuSans-103"/>
      <use x="227.34375" xlink:href="#DejaVuSans-105"/>
      <use x="255.126953" xlink:href="#DejaVuSans-98"/>
      <use x="318.603516" xlink:href="#DejaVuSans-108"/>
      <use x="346.386719" xlink:href="#DejaVuSans-101"/>
      <use x="407.910156" xlink:href="#DejaVuSans-40"/>
      <use x="446.923828" xlink:href="#DejaVuSans-115"/>
      <use x="499.023438" xlink:href="#DejaVuSans-41"/>
      <use x="538.037109" xlink:href="#DejaVuSans-43"/>
      <use x="621.826172" xlink:href="#DejaVuSans-115"/>
      <use x="673.925781" xlink:href="#DejaVuSans-99"/>
      <use x="728.90625" xlink:href="#DejaVuSans-114"/>
      <use x="769.988281" xlink:href="#DejaVuSans-101"/>
      <use x="831.511719" xlink:href="#DejaVuSans-101"/>
      <use x="893.035156" xlink:href="#DejaVuSans-110"/>
     </g>
    </g>
    <g id="patch_119">
     <path d="M 63 109.870938 
L 83 109.870938 
L 83 102.870938 
L 63 102.870938 
z
" style="fill:#aa2395;"/>
    </g>
    <g id="text_24">
     <!-- tangible(s)+tablet -->
     <g transform="translate(91 109.870938)scale(0.1 -0.1)">
      <use xlink:href="#DejaVuSans-116"/>
      <use x="39.208984" xlink:href="#DejaVuSans-97"/>
      <use x="100.488281" xlink:href="#DejaVuSans-110"/>
      <use x="163.867188" xlink:href="#DejaVuSans-103"/>
      <use x="227.34375" xlink:href="#DejaVuSans-105"/>
      <use x="255.126953" xlink:href="#DejaVuSans-98"/>
      <use x="318.603516" xlink:href="#DejaVuSans-108"/>
      <use x="346.386719" xlink:href="#DejaVuSans-101"/>
      <use x="407.910156" xlink:href="#DejaVuSans-40"/>
      <use x="446.923828" xlink:href="#DejaVuSans-115"/>
      <use x="499.023438" xlink:href="#DejaVuSans-41"/>
      <use x="538.037109" xlink:href="#DejaVuSans-43"/>
      <use x="621.826172" xlink:href="#DejaVuSans-116"/>
      <use x="661.035156" xlink:href="#DejaVuSans-97"/>
      <use x="722.314453" xlink:href="#DejaVuSans-98"/>
      <use x="785.791016" xlink:href="#DejaVuSans-108"/>
      <use x="813.574219" xlink:href="#DejaVuSans-101"/>
      <use x="875.097656" xlink:href="#DejaVuSans-116"/>
     </g>
    </g>
    <g id="patch_120">
     <path d="M 63 124.549063 
L 83 124.549063 
L 83 117.549063 
L 63 117.549063 
z
" style="fill:#cc4778;"/>
    </g>
    <g id="text_25">
     <!-- PC -->
     <defs>
      <path d="M 19.671875 64.796875 
L 19.671875 37.40625 
L 32.078125 37.40625 
Q 38.96875 37.40625 42.71875 40.96875 
Q 46.484375 44.53125 46.484375 51.125 
Q 46.484375 57.671875 42.71875 61.234375 
Q 38.96875 64.796875 32.078125 64.796875 
z
M 9.8125 72.90625 
L 32.078125 72.90625 
Q 44.34375 72.90625 50.609375 67.359375 
Q 56.890625 61.8125 56.890625 51.125 
Q 56.890625 40.328125 50.609375 34.8125 
Q 44.34375 29.296875 32.078125 29.296875 
L 19.671875 29.296875 
L 19.671875 0 
L 9.8125 0 
z
" id="DejaVuSans-80"/>
      <path d="M 64.40625 67.28125 
L 64.40625 56.890625 
Q 59.421875 61.53125 53.78125 63.8125 
Q 48.140625 66.109375 41.796875 66.109375 
Q 29.296875 66.109375 22.65625 58.46875 
Q 16.015625 50.828125 16.015625 36.375 
Q 16.015625 21.96875 22.65625 14.328125 
Q 29.296875 6.6875 41.796875 6.6875 
Q 48.140625 6.6875 53.78125 8.984375 
Q 59.421875 11.28125 64.40625 15.921875 
L 64.40625 5.609375 
Q 59.234375 2.09375 53.4375 0.328125 
Q 47.65625 -1.421875 41.21875 -1.421875 
Q 24.65625 -1.421875 15.125 8.703125 
Q 5.609375 18.84375 5.609375 36.375 
Q 5.609375 53.953125 15.125 64.078125 
Q 24.65625 74.21875 41.21875 74.21875 
Q 47.75 74.21875 53.53125 72.484375 
Q 59.328125 70.75 64.40625 67.28125 
z
" id="DejaVuSans-67"/>
     </defs>
     <g transform="translate(91 124.549063)scale(0.1 -0.1)">
      <use xlink:href="#DejaVuSans-80"/>
      <use x="60.302734" xlink:href="#DejaVuSans-67"/>
     </g>
    </g>
    <g id="patch_121">
     <path d="M 63 139.227188 
L 83 139.227188 
L 83 132.227188 
L 63 132.227188 
z
" style="fill:#e66c5c;"/>
    </g>
    <g id="text_26">
     <!-- PC+tangible(s) -->
     <g transform="translate(91 139.227188)scale(0.1 -0.1)">
      <use xlink:href="#DejaVuSans-80"/>
      <use x="60.302734" xlink:href="#DejaVuSans-67"/>
      <use x="130.126953" xlink:href="#DejaVuSans-43"/>
      <use x="213.916016" xlink:href="#DejaVuSans-116"/>
      <use x="253.125" xlink:href="#DejaVuSans-97"/>
      <use x="314.404297" xlink:href="#DejaVuSans-110"/>
      <use x="377.783203" xlink:href="#DejaVuSans-103"/>
      <use x="441.259766" xlink:href="#DejaVuSans-105"/>
      <use x="469.042969" xlink:href="#DejaVuSans-98"/>
      <use x="532.519531" xlink:href="#DejaVuSans-108"/>
      <use x="560.302734" xlink:href="#DejaVuSans-101"/>
      <use x="621.826172" xlink:href="#DejaVuSans-40"/>
      <use x="660.839844" xlink:href="#DejaVuSans-115"/>
      <use x="712.939453" xlink:href="#DejaVuSans-41"/>
     </g>
    </g>
    <g id="patch_122">
     <path d="M 63 153.905313 
L 83 153.905313 
L 83 146.905313 
L 63 146.905313 
z
" style="fill:#f89540;"/>
    </g>
    <g id="text_27">
     <!-- screen -->
     <g transform="translate(91 153.905313)scale(0.1 -0.1)">
      <use xlink:href="#DejaVuSans-115"/>
      <use x="52.099609" xlink:href="#DejaVuSans-99"/>
      <use x="107.080078" xlink:href="#DejaVuSans-114"/>
      <use x="148.162109" xlink:href="#DejaVuSans-101"/>
      <use x="209.685547" xlink:href="#DejaVuSans-101"/>
      <use x="271.208984" xlink:href="#DejaVuSans-110"/>
     </g>
    </g>
    <g id="patch_123">
     <path d="M 63 168.583438 
L 83 168.583438 
L 83 161.583438 
L 63 161.583438 
z
" style="fill:#fdc527;"/>
    </g>
    <g id="text_28">
     <!-- screen+tablet -->
     <g transform="translate(91 168.583438)scale(0.1 -0.1)">
      <use xlink:href="#DejaVuSans-115"/>
      <use x="52.099609" xlink:href="#DejaVuSans-99"/>
      <use x="107.080078" xlink:href="#DejaVuSans-114"/>
      <use x="148.162109" xlink:href="#DejaVuSans-101"/>
      <use x="209.685547" xlink:href="#DejaVuSans-101"/>
      <use x="271.208984" xlink:href="#DejaVuSans-110"/>
      <use x="334.587891" xlink:href="#DejaVuSans-43"/>
      <use x="418.376953" xlink:href="#DejaVuSans-116"/>
      <use x="457.585938" xlink:href="#DejaVuSans-97"/>
      <use x="518.865234" xlink:href="#DejaVuSans-98"/>
      <use x="582.341797" xlink:href="#DejaVuSans-108"/>
      <use x="610.125" xlink:href="#DejaVuSans-101"/>
      <use x="671.648438" xlink:href="#DejaVuSans-116"/>
     </g>
    </g>
    <g id="patch_124">
     <path d="M 63 183.261562 
L 83 183.261562 
L 83 176.261562 
L 63 176.261562 
z
" style="fill:#f0f921;"/>
    </g>
    <g id="text_29">
     <!-- tablet -->
     <g transform="translate(91 183.261562)scale(0.1 -0.1)">
      <use xlink:href="#DejaVuSans-116"/>
      <use x="39.208984" xlink:href="#DejaVuSans-97"/>
      <use x="100.488281" xlink:href="#DejaVuSans-98"/>
      <use x="163.964844" xlink:href="#DejaVuSans-108"/>
      <use x="191.748047" xlink:href="#DejaVuSans-101"/>
      <use x="253.271484" xlink:href="#DejaVuSans-116"/>
     </g>
    </g>
   </g>
  </g>
 </g>
 <defs>
  <clipPath id="p736375da9a">
   <rect height="217.44" width="334.8" x="54" y="34.56"/>
  </clipPath>
 </defs>
</svg>
