<?xml version="1.0" encoding="utf-8" standalone="no"?>
<!DOCTYPE svg PUBLIC "-//W3C//DTD SVG 1.1//EN"
  "http://www.w3.org/Graphics/SVG/1.1/DTD/svg11.dtd">
<!-- Created with matplotlib (https://matplotlib.org/) -->
<svg height="288pt" version="1.1" viewBox="0 0 432 288" width="432pt" xmlns="http://www.w3.org/2000/svg" xmlns:xlink="http://www.w3.org/1999/xlink">
 <defs>
  <style type="text/css">
*{stroke-linecap:butt;stroke-linejoin:round;}
  </style>
 </defs>
 <g id="figure_1">
  <g id="patch_1">
   <path d="M 0 288 
L 432 288 
L 432 0 
L 0 0 
z
" style="fill:#ffffff;"/>
  </g>
  <g id="axes_1">
   <g id="patch_2">
    <path d="M 54 252 
L 388.8 252 
L 388.8 34.56 
L 54 34.56 
z
" style="fill:#ffffff;"/>
   </g>
   <g id="patch_3">
    <path clip-path="url(#p8c761fa434)" d="M 60.975 252 
L 74.925 252 
L 74.925 252 
L 60.975 252 
z
" style="fill:#0d0887;"/>
   </g>
   <g id="patch_4">
    <path clip-path="url(#p8c761fa434)" d="M 88.875 252 
L 102.825 252 
L 102.825 252 
L 88.875 252 
z
" style="fill:#0d0887;"/>
   </g>
   <g id="patch_5">
    <path clip-path="url(#p8c761fa434)" d="M 116.775 252 
L 130.725 252 
L 130.725 252 
L 116.775 252 
z
" style="fill:#0d0887;"/>
   </g>
   <g id="patch_6">
    <path clip-path="url(#p8c761fa434)" d="M 144.675 252 
L 158.625 252 
L 158.625 252 
L 144.675 252 
z
" style="fill:#0d0887;"/>
   </g>
   <g id="patch_7">
    <path clip-path="url(#p8c761fa434)" d="M 172.575 252 
L 186.525 252 
L 186.525 252 
L 172.575 252 
z
" style="fill:#0d0887;"/>
   </g>
   <g id="patch_8">
    <path clip-path="url(#p8c761fa434)" d="M 200.475 252 
L 214.425 252 
L 214.425 243.716571 
L 200.475 243.716571 
z
" style="fill:#0d0887;"/>
   </g>
   <g id="patch_9">
    <path clip-path="url(#p8c761fa434)" d="M 228.375 252 
L 242.325 252 
L 242.325 252 
L 228.375 252 
z
" style="fill:#0d0887;"/>
   </g>
   <g id="patch_10">
    <path clip-path="url(#p8c761fa434)" d="M 256.275 252 
L 270.225 252 
L 270.225 252 
L 256.275 252 
z
" style="fill:#0d0887;"/>
   </g>
   <g id="patch_11">
    <path clip-path="url(#p8c761fa434)" d="M 284.175 252 
L 298.125 252 
L 298.125 243.716571 
L 284.175 243.716571 
z
" style="fill:#0d0887;"/>
   </g>
   <g id="patch_12">
    <path clip-path="url(#p8c761fa434)" d="M 312.075 252 
L 326.025 252 
L 326.025 252 
L 312.075 252 
z
" style="fill:#0d0887;"/>
   </g>
   <g id="patch_13">
    <path clip-path="url(#p8c761fa434)" d="M 339.975 252 
L 353.925 252 
L 353.925 252 
L 339.975 252 
z
" style="fill:#0d0887;"/>
   </g>
   <g id="patch_14">
    <path clip-path="url(#p8c761fa434)" d="M 367.875 252 
L 381.825 252 
L 381.825 252 
L 367.875 252 
z
" style="fill:#0d0887;"/>
   </g>
   <g id="patch_15">
    <path clip-path="url(#p8c761fa434)" d="M 60.975 252 
L 74.925 252 
L 74.925 252 
L 60.975 252 
z
" style="fill:#41049d;"/>
   </g>
   <g id="patch_16">
    <path clip-path="url(#p8c761fa434)" d="M 88.875 252 
L 102.825 252 
L 102.825 252 
L 88.875 252 
z
" style="fill:#41049d;"/>
   </g>
   <g id="patch_17">
    <path clip-path="url(#p8c761fa434)" d="M 116.775 252 
L 130.725 252 
L 130.725 252 
L 116.775 252 
z
" style="fill:#41049d;"/>
   </g>
   <g id="patch_18">
    <path clip-path="url(#p8c761fa434)" d="M 144.675 252 
L 158.625 252 
L 158.625 243.716571 
L 144.675 243.716571 
z
" style="fill:#41049d;"/>
   </g>
   <g id="patch_19">
    <path clip-path="url(#p8c761fa434)" d="M 172.575 252 
L 186.525 252 
L 186.525 252 
L 172.575 252 
z
" style="fill:#41049d;"/>
   </g>
   <g id="patch_20">
    <path clip-path="url(#p8c761fa434)" d="M 200.475 252 
L 214.425 252 
L 214.425 252 
L 200.475 252 
z
" style="fill:#41049d;"/>
   </g>
   <g id="patch_21">
    <path clip-path="url(#p8c761fa434)" d="M 228.375 252 
L 242.325 252 
L 242.325 235.433143 
L 228.375 235.433143 
z
" style="fill:#41049d;"/>
   </g>
   <g id="patch_22">
    <path clip-path="url(#p8c761fa434)" d="M 256.275 252 
L 270.225 252 
L 270.225 210.582857 
L 256.275 210.582857 
z
" style="fill:#41049d;"/>
   </g>
   <g id="patch_23">
    <path clip-path="url(#p8c761fa434)" d="M 284.175 243.716571 
L 298.125 243.716571 
L 298.125 227.149714 
L 284.175 227.149714 
z
" style="fill:#41049d;"/>
   </g>
   <g id="patch_24">
    <path clip-path="url(#p8c761fa434)" d="M 312.075 252 
L 326.025 252 
L 326.025 210.582857 
L 312.075 210.582857 
z
" style="fill:#41049d;"/>
   </g>
   <g id="patch_25">
    <path clip-path="url(#p8c761fa434)" d="M 339.975 252 
L 353.925 252 
L 353.925 227.149714 
L 339.975 227.149714 
z
" style="fill:#41049d;"/>
   </g>
   <g id="patch_26">
    <path clip-path="url(#p8c761fa434)" d="M 367.875 252 
L 381.825 252 
L 381.825 235.433143 
L 367.875 235.433143 
z
" style="fill:#41049d;"/>
   </g>
   <g id="patch_27">
    <path clip-path="url(#p8c761fa434)" d="M 60.975 252 
L 74.925 252 
L 74.925 243.716571 
L 60.975 243.716571 
z
" style="fill:#6a00a8;"/>
   </g>
   <g id="patch_28">
    <path clip-path="url(#p8c761fa434)" d="M 88.875 252 
L 102.825 252 
L 102.825 252 
L 88.875 252 
z
" style="fill:#6a00a8;"/>
   </g>
   <g id="patch_29">
    <path clip-path="url(#p8c761fa434)" d="M 116.775 252 
L 130.725 252 
L 130.725 243.716571 
L 116.775 243.716571 
z
" style="fill:#6a00a8;"/>
   </g>
   <g id="patch_30">
    <path clip-path="url(#p8c761fa434)" d="M 144.675 252 
L 158.625 252 
L 158.625 252 
L 144.675 252 
z
" style="fill:#6a00a8;"/>
   </g>
   <g id="patch_31">
    <path clip-path="url(#p8c761fa434)" d="M 172.575 252 
L 186.525 252 
L 186.525 252 
L 172.575 252 
z
" style="fill:#6a00a8;"/>
   </g>
   <g id="patch_32">
    <path clip-path="url(#p8c761fa434)" d="M 200.475 252 
L 214.425 252 
L 214.425 252 
L 200.475 252 
z
" style="fill:#6a00a8;"/>
   </g>
   <g id="patch_33">
    <path clip-path="url(#p8c761fa434)" d="M 228.375 235.433143 
L 242.325 235.433143 
L 242.325 202.299429 
L 228.375 202.299429 
z
" style="fill:#6a00a8;"/>
   </g>
   <g id="patch_34">
    <path clip-path="url(#p8c761fa434)" d="M 256.275 252 
L 270.225 252 
L 270.225 252 
L 256.275 252 
z
" style="fill:#6a00a8;"/>
   </g>
   <g id="patch_35">
    <path clip-path="url(#p8c761fa434)" d="M 284.175 252 
L 298.125 252 
L 298.125 252 
L 284.175 252 
z
" style="fill:#6a00a8;"/>
   </g>
   <g id="patch_36">
    <path clip-path="url(#p8c761fa434)" d="M 312.075 210.582857 
L 326.025 210.582857 
L 326.025 177.449143 
L 312.075 177.449143 
z
" style="fill:#6a00a8;"/>
   </g>
   <g id="patch_37">
    <path clip-path="url(#p8c761fa434)" d="M 339.975 227.149714 
L 353.925 227.149714 
L 353.925 210.582857 
L 339.975 210.582857 
z
" style="fill:#6a00a8;"/>
   </g>
   <g id="patch_38">
    <path clip-path="url(#p8c761fa434)" d="M 367.875 235.433143 
L 381.825 235.433143 
L 381.825 210.582857 
L 367.875 210.582857 
z
" style="fill:#6a00a8;"/>
   </g>
   <g id="patch_39">
    <path clip-path="url(#p8c761fa434)" d="M 60.975 252 
L 74.925 252 
L 74.925 252 
L 60.975 252 
z
" style="fill:#8f0da4;"/>
   </g>
   <g id="patch_40">
    <path clip-path="url(#p8c761fa434)" d="M 88.875 252 
L 102.825 252 
L 102.825 252 
L 88.875 252 
z
" style="fill:#8f0da4;"/>
   </g>
   <g id="patch_41">
    <path clip-path="url(#p8c761fa434)" d="M 116.775 252 
L 130.725 252 
L 130.725 252 
L 116.775 252 
z
" style="fill:#8f0da4;"/>
   </g>
   <g id="patch_42">
    <path clip-path="url(#p8c761fa434)" d="M 144.675 243.716571 
L 158.625 243.716571 
L 158.625 235.433143 
L 144.675 235.433143 
z
" style="fill:#8f0da4;"/>
   </g>
   <g id="patch_43">
    <path clip-path="url(#p8c761fa434)" d="M 172.575 252 
L 186.525 252 
L 186.525 252 
L 172.575 252 
z
" style="fill:#8f0da4;"/>
   </g>
   <g id="patch_44">
    <path clip-path="url(#p8c761fa434)" d="M 200.475 243.716571 
L 214.425 243.716571 
L 214.425 235.433143 
L 200.475 235.433143 
z
" style="fill:#8f0da4;"/>
   </g>
   <g id="patch_45">
    <path clip-path="url(#p8c761fa434)" d="M 228.375 252 
L 242.325 252 
L 242.325 252 
L 228.375 252 
z
" style="fill:#8f0da4;"/>
   </g>
   <g id="patch_46">
    <path clip-path="url(#p8c761fa434)" d="M 256.275 252 
L 270.225 252 
L 270.225 252 
L 256.275 252 
z
" style="fill:#8f0da4;"/>
   </g>
   <g id="patch_47">
    <path clip-path="url(#p8c761fa434)" d="M 284.175 252 
L 298.125 252 
L 298.125 252 
L 284.175 252 
z
" style="fill:#8f0da4;"/>
   </g>
   <g id="patch_48">
    <path clip-path="url(#p8c761fa434)" d="M 312.075 252 
L 326.025 252 
L 326.025 252 
L 312.075 252 
z
" style="fill:#8f0da4;"/>
   </g>
   <g id="patch_49">
    <path clip-path="url(#p8c761fa434)" d="M 339.975 252 
L 353.925 252 
L 353.925 252 
L 339.975 252 
z
" style="fill:#8f0da4;"/>
   </g>
   <g id="patch_50">
    <path clip-path="url(#p8c761fa434)" d="M 367.875 252 
L 381.825 252 
L 381.825 252 
L 367.875 252 
z
" style="fill:#8f0da4;"/>
   </g>
   <g id="patch_51">
    <path clip-path="url(#p8c761fa434)" d="M 60.975 252 
L 74.925 252 
L 74.925 252 
L 60.975 252 
z
" style="fill:#b12a90;"/>
   </g>
   <g id="patch_52">
    <path clip-path="url(#p8c761fa434)" d="M 88.875 252 
L 102.825 252 
L 102.825 252 
L 88.875 252 
z
" style="fill:#b12a90;"/>
   </g>
   <g id="patch_53">
    <path clip-path="url(#p8c761fa434)" d="M 116.775 243.716571 
L 130.725 243.716571 
L 130.725 235.433143 
L 116.775 235.433143 
z
" style="fill:#b12a90;"/>
   </g>
   <g id="patch_54">
    <path clip-path="url(#p8c761fa434)" d="M 144.675 235.433143 
L 158.625 235.433143 
L 158.625 227.149714 
L 144.675 227.149714 
z
" style="fill:#b12a90;"/>
   </g>
   <g id="patch_55">
    <path clip-path="url(#p8c761fa434)" d="M 172.575 252 
L 186.525 252 
L 186.525 252 
L 172.575 252 
z
" style="fill:#b12a90;"/>
   </g>
   <g id="patch_56">
    <path clip-path="url(#p8c761fa434)" d="M 200.475 235.433143 
L 214.425 235.433143 
L 214.425 227.149714 
L 200.475 227.149714 
z
" style="fill:#b12a90;"/>
   </g>
   <g id="patch_57">
    <path clip-path="url(#p8c761fa434)" d="M 228.375 202.299429 
L 242.325 202.299429 
L 242.325 194.016 
L 228.375 194.016 
z
" style="fill:#b12a90;"/>
   </g>
   <g id="patch_58">
    <path clip-path="url(#p8c761fa434)" d="M 256.275 210.582857 
L 270.225 210.582857 
L 270.225 202.299429 
L 256.275 202.299429 
z
" style="fill:#b12a90;"/>
   </g>
   <g id="patch_59">
    <path clip-path="url(#p8c761fa434)" d="M 284.175 252 
L 298.125 252 
L 298.125 252 
L 284.175 252 
z
" style="fill:#b12a90;"/>
   </g>
   <g id="patch_60">
    <path clip-path="url(#p8c761fa434)" d="M 312.075 177.449143 
L 326.025 177.449143 
L 326.025 160.882286 
L 312.075 160.882286 
z
" style="fill:#b12a90;"/>
   </g>
   <g id="patch_61">
    <path clip-path="url(#p8c761fa434)" d="M 339.975 210.582857 
L 353.925 210.582857 
L 353.925 202.299429 
L 339.975 202.299429 
z
" style="fill:#b12a90;"/>
   </g>
   <g id="patch_62">
    <path clip-path="url(#p8c761fa434)" d="M 367.875 252 
L 381.825 252 
L 381.825 252 
L 367.875 252 
z
" style="fill:#b12a90;"/>
   </g>
   <g id="patch_63">
    <path clip-path="url(#p8c761fa434)" d="M 60.975 243.716571 
L 74.925 243.716571 
L 74.925 210.582857 
L 60.975 210.582857 
z
" style="fill:#cc4778;"/>
   </g>
   <g id="patch_64">
    <path clip-path="url(#p8c761fa434)" d="M 88.875 252 
L 102.825 252 
L 102.825 235.433143 
L 88.875 235.433143 
z
" style="fill:#cc4778;"/>
   </g>
   <g id="patch_65">
    <path clip-path="url(#p8c761fa434)" d="M 116.775 235.433143 
L 130.725 235.433143 
L 130.725 202.299429 
L 116.775 202.299429 
z
" style="fill:#cc4778;"/>
   </g>
   <g id="patch_66">
    <path clip-path="url(#p8c761fa434)" d="M 144.675 227.149714 
L 158.625 227.149714 
L 158.625 218.866286 
L 144.675 218.866286 
z
" style="fill:#cc4778;"/>
   </g>
   <g id="patch_67">
    <path clip-path="url(#p8c761fa434)" d="M 172.575 252 
L 186.525 252 
L 186.525 252 
L 172.575 252 
z
" style="fill:#cc4778;"/>
   </g>
   <g id="patch_68">
    <path clip-path="url(#p8c761fa434)" d="M 200.475 227.149714 
L 214.425 227.149714 
L 214.425 194.016 
L 200.475 194.016 
z
" style="fill:#cc4778;"/>
   </g>
   <g id="patch_69">
    <path clip-path="url(#p8c761fa434)" d="M 228.375 194.016 
L 242.325 194.016 
L 242.325 169.165714 
L 228.375 169.165714 
z
" style="fill:#cc4778;"/>
   </g>
   <g id="patch_70">
    <path clip-path="url(#p8c761fa434)" d="M 256.275 202.299429 
L 270.225 202.299429 
L 270.225 185.732571 
L 256.275 185.732571 
z
" style="fill:#cc4778;"/>
   </g>
   <g id="patch_71">
    <path clip-path="url(#p8c761fa434)" d="M 284.175 227.149714 
L 298.125 227.149714 
L 298.125 218.866286 
L 284.175 218.866286 
z
" style="fill:#cc4778;"/>
   </g>
   <g id="patch_72">
    <path clip-path="url(#p8c761fa434)" d="M 312.075 160.882286 
L 326.025 160.882286 
L 326.025 144.315429 
L 312.075 144.315429 
z
" style="fill:#cc4778;"/>
   </g>
   <g id="patch_73">
    <path clip-path="url(#p8c761fa434)" d="M 339.975 202.299429 
L 353.925 202.299429 
L 353.925 194.016 
L 339.975 194.016 
z
" style="fill:#cc4778;"/>
   </g>
   <g id="patch_74">
    <path clip-path="url(#p8c761fa434)" d="M 367.875 210.582857 
L 381.825 210.582857 
L 381.825 202.299429 
L 367.875 202.299429 
z
" style="fill:#cc4778;"/>
   </g>
   <g id="patch_75">
    <path clip-path="url(#p8c761fa434)" d="M 60.975 252 
L 74.925 252 
L 74.925 252 
L 60.975 252 
z
" style="fill:#e16462;"/>
   </g>
   <g id="patch_76">
    <path clip-path="url(#p8c761fa434)" d="M 88.875 252 
L 102.825 252 
L 102.825 252 
L 88.875 252 
z
" style="fill:#e16462;"/>
   </g>
   <g id="patch_77">
    <path clip-path="url(#p8c761fa434)" d="M 116.775 252 
L 130.725 252 
L 130.725 252 
L 116.775 252 
z
" style="fill:#e16462;"/>
   </g>
   <g id="patch_78">
    <path clip-path="url(#p8c761fa434)" d="M 144.675 252 
L 158.625 252 
L 158.625 252 
L 144.675 252 
z
" style="fill:#e16462;"/>
   </g>
   <g id="patch_79">
    <path clip-path="url(#p8c761fa434)" d="M 172.575 252 
L 186.525 252 
L 186.525 252 
L 172.575 252 
z
" style="fill:#e16462;"/>
   </g>
   <g id="patch_80">
    <path clip-path="url(#p8c761fa434)" d="M 200.475 252 
L 214.425 252 
L 214.425 252 
L 200.475 252 
z
" style="fill:#e16462;"/>
   </g>
   <g id="patch_81">
    <path clip-path="url(#p8c761fa434)" d="M 228.375 169.165714 
L 242.325 169.165714 
L 242.325 160.882286 
L 228.375 160.882286 
z
" style="fill:#e16462;"/>
   </g>
   <g id="patch_82">
    <path clip-path="url(#p8c761fa434)" d="M 256.275 252 
L 270.225 252 
L 270.225 252 
L 256.275 252 
z
" style="fill:#e16462;"/>
   </g>
   <g id="patch_83">
    <path clip-path="url(#p8c761fa434)" d="M 284.175 252 
L 298.125 252 
L 298.125 252 
L 284.175 252 
z
" style="fill:#e16462;"/>
   </g>
   <g id="patch_84">
    <path clip-path="url(#p8c761fa434)" d="M 312.075 252 
L 326.025 252 
L 326.025 252 
L 312.075 252 
z
" style="fill:#e16462;"/>
   </g>
   <g id="patch_85">
    <path clip-path="url(#p8c761fa434)" d="M 339.975 252 
L 353.925 252 
L 353.925 252 
L 339.975 252 
z
" style="fill:#e16462;"/>
   </g>
   <g id="patch_86">
    <path clip-path="url(#p8c761fa434)" d="M 367.875 252 
L 381.825 252 
L 381.825 252 
L 367.875 252 
z
" style="fill:#e16462;"/>
   </g>
   <g id="patch_87">
    <path clip-path="url(#p8c761fa434)" d="M 60.975 252 
L 74.925 252 
L 74.925 252 
L 60.975 252 
z
" style="fill:#f2844b;"/>
   </g>
   <g id="patch_88">
    <path clip-path="url(#p8c761fa434)" d="M 88.875 252 
L 102.825 252 
L 102.825 252 
L 88.875 252 
z
" style="fill:#f2844b;"/>
   </g>
   <g id="patch_89">
    <path clip-path="url(#p8c761fa434)" d="M 116.775 252 
L 130.725 252 
L 130.725 252 
L 116.775 252 
z
" style="fill:#f2844b;"/>
   </g>
   <g id="patch_90">
    <path clip-path="url(#p8c761fa434)" d="M 144.675 252 
L 158.625 252 
L 158.625 252 
L 144.675 252 
z
" style="fill:#f2844b;"/>
   </g>
   <g id="patch_91">
    <path clip-path="url(#p8c761fa434)" d="M 172.575 252 
L 186.525 252 
L 186.525 252 
L 172.575 252 
z
" style="fill:#f2844b;"/>
   </g>
   <g id="patch_92">
    <path clip-path="url(#p8c761fa434)" d="M 200.475 252 
L 214.425 252 
L 214.425 252 
L 200.475 252 
z
" style="fill:#f2844b;"/>
   </g>
   <g id="patch_93">
    <path clip-path="url(#p8c761fa434)" d="M 228.375 252 
L 242.325 252 
L 242.325 252 
L 228.375 252 
z
" style="fill:#f2844b;"/>
   </g>
   <g id="patch_94">
    <path clip-path="url(#p8c761fa434)" d="M 256.275 252 
L 270.225 252 
L 270.225 252 
L 256.275 252 
z
" style="fill:#f2844b;"/>
   </g>
   <g id="patch_95">
    <path clip-path="url(#p8c761fa434)" d="M 284.175 252 
L 298.125 252 
L 298.125 252 
L 284.175 252 
z
" style="fill:#f2844b;"/>
   </g>
   <g id="patch_96">
    <path clip-path="url(#p8c761fa434)" d="M 312.075 144.315429 
L 326.025 144.315429 
L 326.025 136.032 
L 312.075 136.032 
z
" style="fill:#f2844b;"/>
   </g>
   <g id="patch_97">
    <path clip-path="url(#p8c761fa434)" d="M 339.975 252 
L 353.925 252 
L 353.925 252 
L 339.975 252 
z
" style="fill:#f2844b;"/>
   </g>
   <g id="patch_98">
    <path clip-path="url(#p8c761fa434)" d="M 367.875 252 
L 381.825 252 
L 381.825 252 
L 367.875 252 
z
" style="fill:#f2844b;"/>
   </g>
   <g id="patch_99">
    <path clip-path="url(#p8c761fa434)" d="M 60.975 252 
L 74.925 252 
L 74.925 252 
L 60.975 252 
z
" style="fill:#fca636;"/>
   </g>
   <g id="patch_100">
    <path clip-path="url(#p8c761fa434)" d="M 88.875 235.433143 
L 102.825 235.433143 
L 102.825 218.866286 
L 88.875 218.866286 
z
" style="fill:#fca636;"/>
   </g>
   <g id="patch_101">
    <path clip-path="url(#p8c761fa434)" d="M 116.775 202.299429 
L 130.725 202.299429 
L 130.725 185.732571 
L 116.775 185.732571 
z
" style="fill:#fca636;"/>
   </g>
   <g id="patch_102">
    <path clip-path="url(#p8c761fa434)" d="M 144.675 218.866286 
L 158.625 218.866286 
L 158.625 194.016 
L 144.675 194.016 
z
" style="fill:#fca636;"/>
   </g>
   <g id="patch_103">
    <path clip-path="url(#p8c761fa434)" d="M 172.575 252 
L 186.525 252 
L 186.525 227.149714 
L 172.575 227.149714 
z
" style="fill:#fca636;"/>
   </g>
   <g id="patch_104">
    <path clip-path="url(#p8c761fa434)" d="M 200.475 194.016 
L 214.425 194.016 
L 214.425 160.882286 
L 200.475 160.882286 
z
" style="fill:#fca636;"/>
   </g>
   <g id="patch_105">
    <path clip-path="url(#p8c761fa434)" d="M 228.375 160.882286 
L 242.325 160.882286 
L 242.325 102.898286 
L 228.375 102.898286 
z
" style="fill:#fca636;"/>
   </g>
   <g id="patch_106">
    <path clip-path="url(#p8c761fa434)" d="M 256.275 185.732571 
L 270.225 185.732571 
L 270.225 61.481143 
L 256.275 61.481143 
z
" style="fill:#fca636;"/>
   </g>
   <g id="patch_107">
    <path clip-path="url(#p8c761fa434)" d="M 284.175 218.866286 
L 298.125 218.866286 
L 298.125 136.032 
L 284.175 136.032 
z
" style="fill:#fca636;"/>
   </g>
   <g id="patch_108">
    <path clip-path="url(#p8c761fa434)" d="M 312.075 136.032 
L 326.025 136.032 
L 326.025 53.197714 
L 312.075 53.197714 
z
" style="fill:#fca636;"/>
   </g>
   <g id="patch_109">
    <path clip-path="url(#p8c761fa434)" d="M 339.975 194.016 
L 353.925 194.016 
L 353.925 44.914286 
L 339.975 44.914286 
z
" style="fill:#fca636;"/>
   </g>
   <g id="patch_110">
    <path clip-path="url(#p8c761fa434)" d="M 367.875 202.299429 
L 381.825 202.299429 
L 381.825 136.032 
L 367.875 136.032 
z
" style="fill:#fca636;"/>
   </g>
   <g id="patch_111">
    <path clip-path="url(#p8c761fa434)" d="M 60.975 252 
L 74.925 252 
L 74.925 252 
L 60.975 252 
z
" style="fill:#fcce25;"/>
   </g>
   <g id="patch_112">
    <path clip-path="url(#p8c761fa434)" d="M 88.875 252 
L 102.825 252 
L 102.825 252 
L 88.875 252 
z
" style="fill:#fcce25;"/>
   </g>
   <g id="patch_113">
    <path clip-path="url(#p8c761fa434)" d="M 116.775 252 
L 130.725 252 
L 130.725 252 
L 116.775 252 
z
" style="fill:#fcce25;"/>
   </g>
   <g id="patch_114">
    <path clip-path="url(#p8c761fa434)" d="M 144.675 252 
L 158.625 252 
L 158.625 252 
L 144.675 252 
z
" style="fill:#fcce25;"/>
   </g>
   <g id="patch_115">
    <path clip-path="url(#p8c761fa434)" d="M 172.575 252 
L 186.525 252 
L 186.525 252 
L 172.575 252 
z
" style="fill:#fcce25;"/>
   </g>
   <g id="patch_116">
    <path clip-path="url(#p8c761fa434)" d="M 200.475 252 
L 214.425 252 
L 214.425 252 
L 200.475 252 
z
" style="fill:#fcce25;"/>
   </g>
   <g id="patch_117">
    <path clip-path="url(#p8c761fa434)" d="M 228.375 252 
L 242.325 252 
L 242.325 252 
L 228.375 252 
z
" style="fill:#fcce25;"/>
   </g>
   <g id="patch_118">
    <path clip-path="url(#p8c761fa434)" d="M 256.275 252 
L 270.225 252 
L 270.225 252 
L 256.275 252 
z
" style="fill:#fcce25;"/>
   </g>
   <g id="patch_119">
    <path clip-path="url(#p8c761fa434)" d="M 284.175 136.032 
L 298.125 136.032 
L 298.125 127.748571 
L 284.175 127.748571 
z
" style="fill:#fcce25;"/>
   </g>
   <g id="patch_120">
    <path clip-path="url(#p8c761fa434)" d="M 312.075 252 
L 326.025 252 
L 326.025 252 
L 312.075 252 
z
" style="fill:#fcce25;"/>
   </g>
   <g id="patch_121">
    <path clip-path="url(#p8c761fa434)" d="M 339.975 252 
L 353.925 252 
L 353.925 252 
L 339.975 252 
z
" style="fill:#fcce25;"/>
   </g>
   <g id="patch_122">
    <path clip-path="url(#p8c761fa434)" d="M 367.875 252 
L 381.825 252 
L 381.825 252 
L 367.875 252 
z
" style="fill:#fcce25;"/>
   </g>
   <g id="patch_123">
    <path clip-path="url(#p8c761fa434)" d="M 60.975 252 
L 74.925 252 
L 74.925 252 
L 60.975 252 
z
" style="fill:#f0f921;"/>
   </g>
   <g id="patch_124">
    <path clip-path="url(#p8c761fa434)" d="M 88.875 252 
L 102.825 252 
L 102.825 252 
L 88.875 252 
z
" style="fill:#f0f921;"/>
   </g>
   <g id="patch_125">
    <path clip-path="url(#p8c761fa434)" d="M 116.775 252 
L 130.725 252 
L 130.725 252 
L 116.775 252 
z
" style="fill:#f0f921;"/>
   </g>
   <g id="patch_126">
    <path clip-path="url(#p8c761fa434)" d="M 144.675 252 
L 158.625 252 
L 158.625 252 
L 144.675 252 
z
" style="fill:#f0f921;"/>
   </g>
   <g id="patch_127">
    <path clip-path="url(#p8c761fa434)" d="M 172.575 252 
L 186.525 252 
L 186.525 252 
L 172.575 252 
z
" style="fill:#f0f921;"/>
   </g>
   <g id="patch_128">
    <path clip-path="url(#p8c761fa434)" d="M 200.475 160.882286 
L 214.425 160.882286 
L 214.425 152.598857 
L 200.475 152.598857 
z
" style="fill:#f0f921;"/>
   </g>
   <g id="patch_129">
    <path clip-path="url(#p8c761fa434)" d="M 228.375 252 
L 242.325 252 
L 242.325 252 
L 228.375 252 
z
" style="fill:#f0f921;"/>
   </g>
   <g id="patch_130">
    <path clip-path="url(#p8c761fa434)" d="M 256.275 252 
L 270.225 252 
L 270.225 252 
L 256.275 252 
z
" style="fill:#f0f921;"/>
   </g>
   <g id="patch_131">
    <path clip-path="url(#p8c761fa434)" d="M 284.175 252 
L 298.125 252 
L 298.125 252 
L 284.175 252 
z
" style="fill:#f0f921;"/>
   </g>
   <g id="patch_132">
    <path clip-path="url(#p8c761fa434)" d="M 312.075 252 
L 326.025 252 
L 326.025 252 
L 312.075 252 
z
" style="fill:#f0f921;"/>
   </g>
   <g id="patch_133">
    <path clip-path="url(#p8c761fa434)" d="M 339.975 252 
L 353.925 252 
L 353.925 252 
L 339.975 252 
z
" style="fill:#f0f921;"/>
   </g>
   <g id="patch_134">
    <path clip-path="url(#p8c761fa434)" d="M 367.875 252 
L 381.825 252 
L 381.825 252 
L 367.875 252 
z
" style="fill:#f0f921;"/>
   </g>
   <g id="matplotlib.axis_1">
    <g id="xtick_1">
     <g id="line2d_1">
      <defs>
       <path d="M 0 0 
L 0 3.5 
" id="m51bf04bb35" style="stroke:#000000;stroke-width:0.8;"/>
      </defs>
      <g>
       <use style="stroke:#000000;stroke-width:0.8;" x="67.95" xlink:href="#m51bf04bb35" y="252"/>
      </g>
     </g>
     <g id="text_1">
      <!-- 2004-2009 -->
      <defs>
       <path d="M 19.1875 8.296875 
L 53.609375 8.296875 
L 53.609375 0 
L 7.328125 0 
L 7.328125 8.296875 
Q 12.9375 14.109375 22.625 23.890625 
Q 32.328125 33.6875 34.8125 36.53125 
Q 39.546875 41.84375 41.421875 45.53125 
Q 43.3125 49.21875 43.3125 52.78125 
Q 43.3125 58.59375 39.234375 62.25 
Q 35.15625 65.921875 28.609375 65.921875 
Q 23.96875 65.921875 18.8125 64.3125 
Q 13.671875 62.703125 7.8125 59.421875 
L 7.8125 69.390625 
Q 13.765625 71.78125 18.9375 73 
Q 24.125 74.21875 28.421875 74.21875 
Q 39.75 74.21875 46.484375 68.546875 
Q 53.21875 62.890625 53.21875 53.421875 
Q 53.21875 48.921875 51.53125 44.890625 
Q 49.859375 40.875 45.40625 35.40625 
Q 44.1875 33.984375 37.640625 27.21875 
Q 31.109375 20.453125 19.1875 8.296875 
z
" id="DejaVuSans-50"/>
       <path d="M 31.78125 66.40625 
Q 24.171875 66.40625 20.328125 58.90625 
Q 16.5 51.421875 16.5 36.375 
Q 16.5 21.390625 20.328125 13.890625 
Q 24.171875 6.390625 31.78125 6.390625 
Q 39.453125 6.390625 43.28125 13.890625 
Q 47.125 21.390625 47.125 36.375 
Q 47.125 51.421875 43.28125 58.90625 
Q 39.453125 66.40625 31.78125 66.40625 
z
M 31.78125 74.21875 
Q 44.046875 74.21875 50.515625 64.515625 
Q 56.984375 54.828125 56.984375 36.375 
Q 56.984375 17.96875 50.515625 8.265625 
Q 44.046875 -1.421875 31.78125 -1.421875 
Q 19.53125 -1.421875 13.0625 8.265625 
Q 6.59375 17.96875 6.59375 36.375 
Q 6.59375 54.828125 13.0625 64.515625 
Q 19.53125 74.21875 31.78125 74.21875 
z
" id="DejaVuSans-48"/>
       <path d="M 37.796875 64.3125 
L 12.890625 25.390625 
L 37.796875 25.390625 
z
M 35.203125 72.90625 
L 47.609375 72.90625 
L 47.609375 25.390625 
L 58.015625 25.390625 
L 58.015625 17.1875 
L 47.609375 17.1875 
L 47.609375 0 
L 37.796875 0 
L 37.796875 17.1875 
L 4.890625 17.1875 
L 4.890625 26.703125 
z
" id="DejaVuSans-52"/>
       <path d="M 4.890625 31.390625 
L 31.203125 31.390625 
L 31.203125 23.390625 
L 4.890625 23.390625 
z
" id="DejaVuSans-45"/>
       <path d="M 10.984375 1.515625 
L 10.984375 10.5 
Q 14.703125 8.734375 18.5 7.8125 
Q 22.3125 6.890625 25.984375 6.890625 
Q 35.75 6.890625 40.890625 13.453125 
Q 46.046875 20.015625 46.78125 33.40625 
Q 43.953125 29.203125 39.59375 26.953125 
Q 35.25 24.703125 29.984375 24.703125 
Q 19.046875 24.703125 12.671875 31.3125 
Q 6.296875 37.9375 6.296875 49.421875 
Q 6.296875 60.640625 12.9375 67.421875 
Q 19.578125 74.21875 30.609375 74.21875 
Q 43.265625 74.21875 49.921875 64.515625 
Q 56.59375 54.828125 56.59375 36.375 
Q 56.59375 19.140625 48.40625 8.859375 
Q 40.234375 -1.421875 26.421875 -1.421875 
Q 22.703125 -1.421875 18.890625 -0.6875 
Q 15.09375 0.046875 10.984375 1.515625 
z
M 30.609375 32.421875 
Q 37.25 32.421875 41.125 36.953125 
Q 45.015625 41.5 45.015625 49.421875 
Q 45.015625 57.28125 41.125 61.84375 
Q 37.25 66.40625 30.609375 66.40625 
Q 23.96875 66.40625 20.09375 61.84375 
Q 16.21875 57.28125 16.21875 49.421875 
Q 16.21875 41.5 20.09375 36.953125 
Q 23.96875 32.421875 30.609375 32.421875 
z
" id="DejaVuSans-57"/>
      </defs>
      <g transform="translate(70.709375 313.507812)rotate(-90)scale(0.1 -0.1)">
       <use xlink:href="#DejaVuSans-50"/>
       <use x="63.623047" xlink:href="#DejaVuSans-48"/>
       <use x="127.246094" xlink:href="#DejaVuSans-48"/>
       <use x="190.869141" xlink:href="#DejaVuSans-52"/>
       <use x="254.492188" xlink:href="#DejaVuSans-45"/>
       <use x="290.576172" xlink:href="#DejaVuSans-50"/>
       <use x="354.199219" xlink:href="#DejaVuSans-48"/>
       <use x="417.822266" xlink:href="#DejaVuSans-48"/>
       <use x="481.445312" xlink:href="#DejaVuSans-57"/>
      </g>
     </g>
    </g>
    <g id="xtick_2">
     <g id="line2d_2">
      <g>
       <use style="stroke:#000000;stroke-width:0.8;" x="95.85" xlink:href="#m51bf04bb35" y="252"/>
      </g>
     </g>
     <g id="text_2">
      <!-- 2010 -->
      <defs>
       <path d="M 12.40625 8.296875 
L 28.515625 8.296875 
L 28.515625 63.921875 
L 10.984375 60.40625 
L 10.984375 69.390625 
L 28.421875 72.90625 
L 38.28125 72.90625 
L 38.28125 8.296875 
L 54.390625 8.296875 
L 54.390625 0 
L 12.40625 0 
z
" id="DejaVuSans-49"/>
      </defs>
      <g transform="translate(98.609375 284.45)rotate(-90)scale(0.1 -0.1)">
       <use xlink:href="#DejaVuSans-50"/>
       <use x="63.623047" xlink:href="#DejaVuSans-48"/>
       <use x="127.246094" xlink:href="#DejaVuSans-49"/>
       <use x="190.869141" xlink:href="#DejaVuSans-48"/>
      </g>
     </g>
    </g>
    <g id="xtick_3">
     <g id="line2d_3">
      <g>
       <use style="stroke:#000000;stroke-width:0.8;" x="123.75" xlink:href="#m51bf04bb35" y="252"/>
      </g>
     </g>
     <g id="text_3">
      <!-- 2011 -->
      <g transform="translate(126.509375 284.45)rotate(-90)scale(0.1 -0.1)">
       <use xlink:href="#DejaVuSans-50"/>
       <use x="63.623047" xlink:href="#DejaVuSans-48"/>
       <use x="127.246094" xlink:href="#DejaVuSans-49"/>
       <use x="190.869141" xlink:href="#DejaVuSans-49"/>
      </g>
     </g>
    </g>
    <g id="xtick_4">
     <g id="line2d_4">
      <g>
       <use style="stroke:#000000;stroke-width:0.8;" x="151.65" xlink:href="#m51bf04bb35" y="252"/>
      </g>
     </g>
     <g id="text_4">
      <!-- 2012 -->
      <g transform="translate(154.409375 284.45)rotate(-90)scale(0.1 -0.1)">
       <use xlink:href="#DejaVuSans-50"/>
       <use x="63.623047" xlink:href="#DejaVuSans-48"/>
       <use x="127.246094" xlink:href="#DejaVuSans-49"/>
       <use x="190.869141" xlink:href="#DejaVuSans-50"/>
      </g>
     </g>
    </g>
    <g id="xtick_5">
     <g id="line2d_5">
      <g>
       <use style="stroke:#000000;stroke-width:0.8;" x="179.55" xlink:href="#m51bf04bb35" y="252"/>
      </g>
     </g>
     <g id="text_5">
      <!-- 2013 -->
      <defs>
       <path d="M 40.578125 39.3125 
Q 47.65625 37.796875 51.625 33 
Q 55.609375 28.21875 55.609375 21.1875 
Q 55.609375 10.40625 48.1875 4.484375 
Q 40.765625 -1.421875 27.09375 -1.421875 
Q 22.515625 -1.421875 17.65625 -0.515625 
Q 12.796875 0.390625 7.625 2.203125 
L 7.625 11.71875 
Q 11.71875 9.328125 16.59375 8.109375 
Q 21.484375 6.890625 26.8125 6.890625 
Q 36.078125 6.890625 40.9375 10.546875 
Q 45.796875 14.203125 45.796875 21.1875 
Q 45.796875 27.640625 41.28125 31.265625 
Q 36.765625 34.90625 28.71875 34.90625 
L 20.21875 34.90625 
L 20.21875 43.015625 
L 29.109375 43.015625 
Q 36.375 43.015625 40.234375 45.921875 
Q 44.09375 48.828125 44.09375 54.296875 
Q 44.09375 59.90625 40.109375 62.90625 
Q 36.140625 65.921875 28.71875 65.921875 
Q 24.65625 65.921875 20.015625 65.03125 
Q 15.375 64.15625 9.8125 62.3125 
L 9.8125 71.09375 
Q 15.4375 72.65625 20.34375 73.4375 
Q 25.25 74.21875 29.59375 74.21875 
Q 40.828125 74.21875 47.359375 69.109375 
Q 53.90625 64.015625 53.90625 55.328125 
Q 53.90625 49.265625 50.4375 45.09375 
Q 46.96875 40.921875 40.578125 39.3125 
z
" id="DejaVuSans-51"/>
      </defs>
      <g transform="translate(182.309375 284.45)rotate(-90)scale(0.1 -0.1)">
       <use xlink:href="#DejaVuSans-50"/>
       <use x="63.623047" xlink:href="#DejaVuSans-48"/>
       <use x="127.246094" xlink:href="#DejaVuSans-49"/>
       <use x="190.869141" xlink:href="#DejaVuSans-51"/>
      </g>
     </g>
    </g>
    <g id="xtick_6">
     <g id="line2d_6">
      <g>
       <use style="stroke:#000000;stroke-width:0.8;" x="207.45" xlink:href="#m51bf04bb35" y="252"/>
      </g>
     </g>
     <g id="text_6">
      <!-- 2014 -->
      <g transform="translate(210.209375 284.45)rotate(-90)scale(0.1 -0.1)">
       <use xlink:href="#DejaVuSans-50"/>
       <use x="63.623047" xlink:href="#DejaVuSans-48"/>
       <use x="127.246094" xlink:href="#DejaVuSans-49"/>
       <use x="190.869141" xlink:href="#DejaVuSans-52"/>
      </g>
     </g>
    </g>
    <g id="xtick_7">
     <g id="line2d_7">
      <g>
       <use style="stroke:#000000;stroke-width:0.8;" x="235.35" xlink:href="#m51bf04bb35" y="252"/>
      </g>
     </g>
     <g id="text_7">
      <!-- 2015 -->
      <defs>
       <path d="M 10.796875 72.90625 
L 49.515625 72.90625 
L 49.515625 64.59375 
L 19.828125 64.59375 
L 19.828125 46.734375 
Q 21.96875 47.46875 24.109375 47.828125 
Q 26.265625 48.1875 28.421875 48.1875 
Q 40.625 48.1875 47.75 41.5 
Q 54.890625 34.8125 54.890625 23.390625 
Q 54.890625 11.625 47.5625 5.09375 
Q 40.234375 -1.421875 26.90625 -1.421875 
Q 22.3125 -1.421875 17.546875 -0.640625 
Q 12.796875 0.140625 7.71875 1.703125 
L 7.71875 11.625 
Q 12.109375 9.234375 16.796875 8.0625 
Q 21.484375 6.890625 26.703125 6.890625 
Q 35.15625 6.890625 40.078125 11.328125 
Q 45.015625 15.765625 45.015625 23.390625 
Q 45.015625 31 40.078125 35.4375 
Q 35.15625 39.890625 26.703125 39.890625 
Q 22.75 39.890625 18.8125 39.015625 
Q 14.890625 38.140625 10.796875 36.28125 
z
" id="DejaVuSans-53"/>
      </defs>
      <g transform="translate(238.109375 284.45)rotate(-90)scale(0.1 -0.1)">
       <use xlink:href="#DejaVuSans-50"/>
       <use x="63.623047" xlink:href="#DejaVuSans-48"/>
       <use x="127.246094" xlink:href="#DejaVuSans-49"/>
       <use x="190.869141" xlink:href="#DejaVuSans-53"/>
      </g>
     </g>
    </g>
    <g id="xtick_8">
     <g id="line2d_8">
      <g>
       <use style="stroke:#000000;stroke-width:0.8;" x="263.25" xlink:href="#m51bf04bb35" y="252"/>
      </g>
     </g>
     <g id="text_8">
      <!-- 2016 -->
      <defs>
       <path d="M 33.015625 40.375 
Q 26.375 40.375 22.484375 35.828125 
Q 18.609375 31.296875 18.609375 23.390625 
Q 18.609375 15.53125 22.484375 10.953125 
Q 26.375 6.390625 33.015625 6.390625 
Q 39.65625 6.390625 43.53125 10.953125 
Q 47.40625 15.53125 47.40625 23.390625 
Q 47.40625 31.296875 43.53125 35.828125 
Q 39.65625 40.375 33.015625 40.375 
z
M 52.59375 71.296875 
L 52.59375 62.3125 
Q 48.875 64.0625 45.09375 64.984375 
Q 41.3125 65.921875 37.59375 65.921875 
Q 27.828125 65.921875 22.671875 59.328125 
Q 17.53125 52.734375 16.796875 39.40625 
Q 19.671875 43.65625 24.015625 45.921875 
Q 28.375 48.1875 33.59375 48.1875 
Q 44.578125 48.1875 50.953125 41.515625 
Q 57.328125 34.859375 57.328125 23.390625 
Q 57.328125 12.15625 50.6875 5.359375 
Q 44.046875 -1.421875 33.015625 -1.421875 
Q 20.359375 -1.421875 13.671875 8.265625 
Q 6.984375 17.96875 6.984375 36.375 
Q 6.984375 53.65625 15.1875 63.9375 
Q 23.390625 74.21875 37.203125 74.21875 
Q 40.921875 74.21875 44.703125 73.484375 
Q 48.484375 72.75 52.59375 71.296875 
z
" id="DejaVuSans-54"/>
      </defs>
      <g transform="translate(266.009375 284.45)rotate(-90)scale(0.1 -0.1)">
       <use xlink:href="#DejaVuSans-50"/>
       <use x="63.623047" xlink:href="#DejaVuSans-48"/>
       <use x="127.246094" xlink:href="#DejaVuSans-49"/>
       <use x="190.869141" xlink:href="#DejaVuSans-54"/>
      </g>
     </g>
    </g>
    <g id="xtick_9">
     <g id="line2d_9">
      <g>
       <use style="stroke:#000000;stroke-width:0.8;" x="291.15" xlink:href="#m51bf04bb35" y="252"/>
      </g>
     </g>
     <g id="text_9">
      <!-- 2017 -->
      <defs>
       <path d="M 8.203125 72.90625 
L 55.078125 72.90625 
L 55.078125 68.703125 
L 28.609375 0 
L 18.3125 0 
L 43.21875 64.59375 
L 8.203125 64.59375 
z
" id="DejaVuSans-55"/>
      </defs>
      <g transform="translate(293.909375 284.45)rotate(-90)scale(0.1 -0.1)">
       <use xlink:href="#DejaVuSans-50"/>
       <use x="63.623047" xlink:href="#DejaVuSans-48"/>
       <use x="127.246094" xlink:href="#DejaVuSans-49"/>
       <use x="190.869141" xlink:href="#DejaVuSans-55"/>
      </g>
     </g>
    </g>
    <g id="xtick_10">
     <g id="line2d_10">
      <g>
       <use style="stroke:#000000;stroke-width:0.8;" x="319.05" xlink:href="#m51bf04bb35" y="252"/>
      </g>
     </g>
     <g id="text_10">
      <!-- 2018 -->
      <defs>
       <path d="M 31.78125 34.625 
Q 24.75 34.625 20.71875 30.859375 
Q 16.703125 27.09375 16.703125 20.515625 
Q 16.703125 13.921875 20.71875 10.15625 
Q 24.75 6.390625 31.78125 6.390625 
Q 38.8125 6.390625 42.859375 10.171875 
Q 46.921875 13.96875 46.921875 20.515625 
Q 46.921875 27.09375 42.890625 30.859375 
Q 38.875 34.625 31.78125 34.625 
z
M 21.921875 38.8125 
Q 15.578125 40.375 12.03125 44.71875 
Q 8.5 49.078125 8.5 55.328125 
Q 8.5 64.0625 14.71875 69.140625 
Q 20.953125 74.21875 31.78125 74.21875 
Q 42.671875 74.21875 48.875 69.140625 
Q 55.078125 64.0625 55.078125 55.328125 
Q 55.078125 49.078125 51.53125 44.71875 
Q 48 40.375 41.703125 38.8125 
Q 48.828125 37.15625 52.796875 32.3125 
Q 56.78125 27.484375 56.78125 20.515625 
Q 56.78125 9.90625 50.3125 4.234375 
Q 43.84375 -1.421875 31.78125 -1.421875 
Q 19.734375 -1.421875 13.25 4.234375 
Q 6.78125 9.90625 6.78125 20.515625 
Q 6.78125 27.484375 10.78125 32.3125 
Q 14.796875 37.15625 21.921875 38.8125 
z
M 18.3125 54.390625 
Q 18.3125 48.734375 21.84375 45.5625 
Q 25.390625 42.390625 31.78125 42.390625 
Q 38.140625 42.390625 41.71875 45.5625 
Q 45.3125 48.734375 45.3125 54.390625 
Q 45.3125 60.0625 41.71875 63.234375 
Q 38.140625 66.40625 31.78125 66.40625 
Q 25.390625 66.40625 21.84375 63.234375 
Q 18.3125 60.0625 18.3125 54.390625 
z
" id="DejaVuSans-56"/>
      </defs>
      <g transform="translate(321.809375 284.45)rotate(-90)scale(0.1 -0.1)">
       <use xlink:href="#DejaVuSans-50"/>
       <use x="63.623047" xlink:href="#DejaVuSans-48"/>
       <use x="127.246094" xlink:href="#DejaVuSans-49"/>
       <use x="190.869141" xlink:href="#DejaVuSans-56"/>
      </g>
     </g>
    </g>
    <g id="xtick_11">
     <g id="line2d_11">
      <g>
       <use style="stroke:#000000;stroke-width:0.8;" x="346.95" xlink:href="#m51bf04bb35" y="252"/>
      </g>
     </g>
     <g id="text_11">
      <!-- 2019 -->
      <g transform="translate(349.709375 284.45)rotate(-90)scale(0.1 -0.1)">
       <use xlink:href="#DejaVuSans-50"/>
       <use x="63.623047" xlink:href="#DejaVuSans-48"/>
       <use x="127.246094" xlink:href="#DejaVuSans-49"/>
       <use x="190.869141" xlink:href="#DejaVuSans-57"/>
      </g>
     </g>
    </g>
    <g id="xtick_12">
     <g id="line2d_12">
      <g>
       <use style="stroke:#000000;stroke-width:0.8;" x="374.85" xlink:href="#m51bf04bb35" y="252"/>
      </g>
     </g>
     <g id="text_12">
      <!-- 2020 -->
      <g transform="translate(377.609375 284.45)rotate(-90)scale(0.1 -0.1)">
       <use xlink:href="#DejaVuSans-50"/>
       <use x="63.623047" xlink:href="#DejaVuSans-48"/>
       <use x="127.246094" xlink:href="#DejaVuSans-50"/>
       <use x="190.869141" xlink:href="#DejaVuSans-48"/>
      </g>
     </g>
    </g>
    <g id="text_13">
     <!-- wtype -->
     <defs>
      <path d="M 4.203125 54.6875 
L 13.1875 54.6875 
L 24.421875 12.015625 
L 35.59375 54.6875 
L 46.1875 54.6875 
L 57.421875 12.015625 
L 68.609375 54.6875 
L 77.59375 54.6875 
L 63.28125 0 
L 52.6875 0 
L 40.921875 44.828125 
L 29.109375 0 
L 18.5 0 
z
" id="DejaVuSans-119"/>
      <path d="M 18.3125 70.21875 
L 18.3125 54.6875 
L 36.8125 54.6875 
L 36.8125 47.703125 
L 18.3125 47.703125 
L 18.3125 18.015625 
Q 18.3125 11.328125 20.140625 9.421875 
Q 21.96875 7.515625 27.59375 7.515625 
L 36.8125 7.515625 
L 36.8125 0 
L 27.59375 0 
Q 17.1875 0 13.234375 3.875 
Q 9.28125 7.765625 9.28125 18.015625 
L 9.28125 47.703125 
L 2.6875 47.703125 
L 2.6875 54.6875 
L 9.28125 54.6875 
L 9.28125 70.21875 
z
" id="DejaVuSans-116"/>
      <path d="M 32.171875 -5.078125 
Q 28.375 -14.84375 24.75 -17.8125 
Q 21.140625 -20.796875 15.09375 -20.796875 
L 7.90625 -20.796875 
L 7.90625 -13.28125 
L 13.1875 -13.28125 
Q 16.890625 -13.28125 18.9375 -11.515625 
Q 21 -9.765625 23.484375 -3.21875 
L 25.09375 0.875 
L 2.984375 54.6875 
L 12.5 54.6875 
L 29.59375 11.921875 
L 46.6875 54.6875 
L 56.203125 54.6875 
z
" id="DejaVuSans-121"/>
      <path d="M 18.109375 8.203125 
L 18.109375 -20.796875 
L 9.078125 -20.796875 
L 9.078125 54.6875 
L 18.109375 54.6875 
L 18.109375 46.390625 
Q 20.953125 51.265625 25.265625 53.625 
Q 29.59375 56 35.59375 56 
Q 45.5625 56 51.78125 48.09375 
Q 58.015625 40.1875 58.015625 27.296875 
Q 58.015625 14.40625 51.78125 6.484375 
Q 45.5625 -1.421875 35.59375 -1.421875 
Q 29.59375 -1.421875 25.265625 0.953125 
Q 20.953125 3.328125 18.109375 8.203125 
z
M 48.6875 27.296875 
Q 48.6875 37.203125 44.609375 42.84375 
Q 40.53125 48.484375 33.40625 48.484375 
Q 26.265625 48.484375 22.1875 42.84375 
Q 18.109375 37.203125 18.109375 27.296875 
Q 18.109375 17.390625 22.1875 11.75 
Q 26.265625 6.109375 33.40625 6.109375 
Q 40.53125 6.109375 44.609375 11.75 
Q 48.6875 17.390625 48.6875 27.296875 
z
" id="DejaVuSans-112"/>
      <path d="M 56.203125 29.59375 
L 56.203125 25.203125 
L 14.890625 25.203125 
Q 15.484375 15.921875 20.484375 11.0625 
Q 25.484375 6.203125 34.421875 6.203125 
Q 39.59375 6.203125 44.453125 7.46875 
Q 49.3125 8.734375 54.109375 11.28125 
L 54.109375 2.78125 
Q 49.265625 0.734375 44.1875 -0.34375 
Q 39.109375 -1.421875 33.890625 -1.421875 
Q 20.796875 -1.421875 13.15625 6.1875 
Q 5.515625 13.8125 5.515625 26.8125 
Q 5.515625 40.234375 12.765625 48.109375 
Q 20.015625 56 32.328125 56 
Q 43.359375 56 49.78125 48.890625 
Q 56.203125 41.796875 56.203125 29.59375 
z
M 47.21875 32.234375 
Q 47.125 39.59375 43.09375 43.984375 
Q 39.0625 48.390625 32.421875 48.390625 
Q 24.90625 48.390625 20.390625 44.140625 
Q 15.875 39.890625 15.1875 32.171875 
z
" id="DejaVuSans-101"/>
     </defs>
     <g transform="translate(206.140625 325.10625)scale(0.1 -0.1)">
      <use xlink:href="#DejaVuSans-119"/>
      <use x="81.787109" xlink:href="#DejaVuSans-116"/>
      <use x="120.996094" xlink:href="#DejaVuSans-121"/>
      <use x="180.175781" xlink:href="#DejaVuSans-112"/>
      <use x="243.652344" xlink:href="#DejaVuSans-101"/>
     </g>
    </g>
   </g>
   <g id="matplotlib.axis_2">
    <g id="ytick_1">
     <g id="line2d_13">
      <defs>
       <path d="M 0 0 
L -3.5 0 
" id="me7bbff0f4a" style="stroke:#000000;stroke-width:0.8;"/>
      </defs>
      <g>
       <use style="stroke:#000000;stroke-width:0.8;" x="54" xlink:href="#me7bbff0f4a" y="252"/>
      </g>
     </g>
     <g id="text_14">
      <!-- 0 -->
      <g transform="translate(40.6375 255.799219)scale(0.1 -0.1)">
       <use xlink:href="#DejaVuSans-48"/>
      </g>
     </g>
    </g>
    <g id="ytick_2">
     <g id="line2d_14">
      <g>
       <use style="stroke:#000000;stroke-width:0.8;" x="54" xlink:href="#me7bbff0f4a" y="210.582857"/>
      </g>
     </g>
     <g id="text_15">
      <!-- 5 -->
      <g transform="translate(40.6375 214.382076)scale(0.1 -0.1)">
       <use xlink:href="#DejaVuSans-53"/>
      </g>
     </g>
    </g>
    <g id="ytick_3">
     <g id="line2d_15">
      <g>
       <use style="stroke:#000000;stroke-width:0.8;" x="54" xlink:href="#me7bbff0f4a" y="169.165714"/>
      </g>
     </g>
     <g id="text_16">
      <!-- 10 -->
      <g transform="translate(34.275 172.964933)scale(0.1 -0.1)">
       <use xlink:href="#DejaVuSans-49"/>
       <use x="63.623047" xlink:href="#DejaVuSans-48"/>
      </g>
     </g>
    </g>
    <g id="ytick_4">
     <g id="line2d_16">
      <g>
       <use style="stroke:#000000;stroke-width:0.8;" x="54" xlink:href="#me7bbff0f4a" y="127.748571"/>
      </g>
     </g>
     <g id="text_17">
      <!-- 15 -->
      <g transform="translate(34.275 131.54779)scale(0.1 -0.1)">
       <use xlink:href="#DejaVuSans-49"/>
       <use x="63.623047" xlink:href="#DejaVuSans-53"/>
      </g>
     </g>
    </g>
    <g id="ytick_5">
     <g id="line2d_17">
      <g>
       <use style="stroke:#000000;stroke-width:0.8;" x="54" xlink:href="#me7bbff0f4a" y="86.331429"/>
      </g>
     </g>
     <g id="text_18">
      <!-- 20 -->
      <g transform="translate(34.275 90.130647)scale(0.1 -0.1)">
       <use xlink:href="#DejaVuSans-50"/>
       <use x="63.623047" xlink:href="#DejaVuSans-48"/>
      </g>
     </g>
    </g>
    <g id="ytick_6">
     <g id="line2d_18">
      <g>
       <use style="stroke:#000000;stroke-width:0.8;" x="54" xlink:href="#me7bbff0f4a" y="44.914286"/>
      </g>
     </g>
     <g id="text_19">
      <!-- 25 -->
      <g transform="translate(34.275 48.713504)scale(0.1 -0.1)">
       <use xlink:href="#DejaVuSans-50"/>
       <use x="63.623047" xlink:href="#DejaVuSans-53"/>
      </g>
     </g>
    </g>
   </g>
   <g id="patch_135">
    <path d="M 54 252 
L 54 34.56 
" style="fill:none;stroke:#000000;stroke-linecap:square;stroke-linejoin:miter;stroke-width:0.8;"/>
   </g>
   <g id="patch_136">
    <path d="M 388.8 252 
L 388.8 34.56 
" style="fill:none;stroke:#000000;stroke-linecap:square;stroke-linejoin:miter;stroke-width:0.8;"/>
   </g>
   <g id="patch_137">
    <path d="M 54 252 
L 388.8 252 
" style="fill:none;stroke:#000000;stroke-linecap:square;stroke-linejoin:miter;stroke-width:0.8;"/>
   </g>
   <g id="patch_138">
    <path d="M 54 34.56 
L 388.8 34.56 
" style="fill:none;stroke:#000000;stroke-linecap:square;stroke-linejoin:miter;stroke-width:0.8;"/>
   </g>
   <g id="legend_1">
    <g id="patch_139">
     <path d="M -39.678125 218.6975 
L 381.8 218.6975 
Q 383.8 218.6975 383.8 216.6975 
L 383.8 41.56 
Q 383.8 39.56 381.8 39.56 
L -39.678125 39.56 
Q -41.678125 39.56 -41.678125 41.56 
L -41.678125 216.6975 
Q -41.678125 218.6975 -39.678125 218.6975 
z
" style="fill:#ffffff;opacity:0.8;stroke:#cccccc;stroke-linejoin:miter;"/>
    </g>
    <g id="text_20">
     <!-- Role (Pr = presenter, TA = teaching assistant, Te = teacher, Pe = peer, Tu = tutor) -->
     <defs>
      <path d="M 44.390625 34.1875 
Q 47.5625 33.109375 50.5625 29.59375 
Q 53.5625 26.078125 56.59375 19.921875 
L 66.609375 0 
L 56 0 
L 46.6875 18.703125 
Q 43.0625 26.03125 39.671875 28.421875 
Q 36.28125 30.8125 30.421875 30.8125 
L 19.671875 30.8125 
L 19.671875 0 
L 9.8125 0 
L 9.8125 72.90625 
L 32.078125 72.90625 
Q 44.578125 72.90625 50.734375 67.671875 
Q 56.890625 62.453125 56.890625 51.90625 
Q 56.890625 45.015625 53.6875 40.46875 
Q 50.484375 35.9375 44.390625 34.1875 
z
M 19.671875 64.796875 
L 19.671875 38.921875 
L 32.078125 38.921875 
Q 39.203125 38.921875 42.84375 42.21875 
Q 46.484375 45.515625 46.484375 51.90625 
Q 46.484375 58.296875 42.84375 61.546875 
Q 39.203125 64.796875 32.078125 64.796875 
z
" id="DejaVuSans-82"/>
      <path d="M 30.609375 48.390625 
Q 23.390625 48.390625 19.1875 42.75 
Q 14.984375 37.109375 14.984375 27.296875 
Q 14.984375 17.484375 19.15625 11.84375 
Q 23.34375 6.203125 30.609375 6.203125 
Q 37.796875 6.203125 41.984375 11.859375 
Q 46.1875 17.53125 46.1875 27.296875 
Q 46.1875 37.015625 41.984375 42.703125 
Q 37.796875 48.390625 30.609375 48.390625 
z
M 30.609375 56 
Q 42.328125 56 49.015625 48.375 
Q 55.71875 40.765625 55.71875 27.296875 
Q 55.71875 13.875 49.015625 6.21875 
Q 42.328125 -1.421875 30.609375 -1.421875 
Q 18.84375 -1.421875 12.171875 6.21875 
Q 5.515625 13.875 5.515625 27.296875 
Q 5.515625 40.765625 12.171875 48.375 
Q 18.84375 56 30.609375 56 
z
" id="DejaVuSans-111"/>
      <path d="M 9.421875 75.984375 
L 18.40625 75.984375 
L 18.40625 0 
L 9.421875 0 
z
" id="DejaVuSans-108"/>
      <path id="DejaVuSans-32"/>
      <path d="M 31 75.875 
Q 24.46875 64.65625 21.28125 53.65625 
Q 18.109375 42.671875 18.109375 31.390625 
Q 18.109375 20.125 21.3125 9.0625 
Q 24.515625 -2 31 -13.1875 
L 23.1875 -13.1875 
Q 15.875 -1.703125 12.234375 9.375 
Q 8.59375 20.453125 8.59375 31.390625 
Q 8.59375 42.28125 12.203125 53.3125 
Q 15.828125 64.359375 23.1875 75.875 
z
" id="DejaVuSans-40"/>
      <path d="M 19.671875 64.796875 
L 19.671875 37.40625 
L 32.078125 37.40625 
Q 38.96875 37.40625 42.71875 40.96875 
Q 46.484375 44.53125 46.484375 51.125 
Q 46.484375 57.671875 42.71875 61.234375 
Q 38.96875 64.796875 32.078125 64.796875 
z
M 9.8125 72.90625 
L 32.078125 72.90625 
Q 44.34375 72.90625 50.609375 67.359375 
Q 56.890625 61.8125 56.890625 51.125 
Q 56.890625 40.328125 50.609375 34.8125 
Q 44.34375 29.296875 32.078125 29.296875 
L 19.671875 29.296875 
L 19.671875 0 
L 9.8125 0 
z
" id="DejaVuSans-80"/>
      <path d="M 41.109375 46.296875 
Q 39.59375 47.171875 37.8125 47.578125 
Q 36.03125 48 33.890625 48 
Q 26.265625 48 22.1875 43.046875 
Q 18.109375 38.09375 18.109375 28.8125 
L 18.109375 0 
L 9.078125 0 
L 9.078125 54.6875 
L 18.109375 54.6875 
L 18.109375 46.1875 
Q 20.953125 51.171875 25.484375 53.578125 
Q 30.03125 56 36.53125 56 
Q 37.453125 56 38.578125 55.875 
Q 39.703125 55.765625 41.0625 55.515625 
z
" id="DejaVuSans-114"/>
      <path d="M 10.59375 45.40625 
L 73.1875 45.40625 
L 73.1875 37.203125 
L 10.59375 37.203125 
z
M 10.59375 25.484375 
L 73.1875 25.484375 
L 73.1875 17.1875 
L 10.59375 17.1875 
z
" id="DejaVuSans-61"/>
      <path d="M 44.28125 53.078125 
L 44.28125 44.578125 
Q 40.484375 46.53125 36.375 47.5 
Q 32.28125 48.484375 27.875 48.484375 
Q 21.1875 48.484375 17.84375 46.4375 
Q 14.5 44.390625 14.5 40.28125 
Q 14.5 37.15625 16.890625 35.375 
Q 19.28125 33.59375 26.515625 31.984375 
L 29.59375 31.296875 
Q 39.15625 29.25 43.1875 25.515625 
Q 47.21875 21.78125 47.21875 15.09375 
Q 47.21875 7.46875 41.1875 3.015625 
Q 35.15625 -1.421875 24.609375 -1.421875 
Q 20.21875 -1.421875 15.453125 -0.5625 
Q 10.6875 0.296875 5.421875 2 
L 5.421875 11.28125 
Q 10.40625 8.6875 15.234375 7.390625 
Q 20.0625 6.109375 24.8125 6.109375 
Q 31.15625 6.109375 34.5625 8.28125 
Q 37.984375 10.453125 37.984375 14.40625 
Q 37.984375 18.0625 35.515625 20.015625 
Q 33.0625 21.96875 24.703125 23.78125 
L 21.578125 24.515625 
Q 13.234375 26.265625 9.515625 29.90625 
Q 5.8125 33.546875 5.8125 39.890625 
Q 5.8125 47.609375 11.28125 51.796875 
Q 16.75 56 26.8125 56 
Q 31.78125 56 36.171875 55.265625 
Q 40.578125 54.546875 44.28125 53.078125 
z
" id="DejaVuSans-115"/>
      <path d="M 54.890625 33.015625 
L 54.890625 0 
L 45.90625 0 
L 45.90625 32.71875 
Q 45.90625 40.484375 42.875 44.328125 
Q 39.84375 48.1875 33.796875 48.1875 
Q 26.515625 48.1875 22.3125 43.546875 
Q 18.109375 38.921875 18.109375 30.90625 
L 18.109375 0 
L 9.078125 0 
L 9.078125 54.6875 
L 18.109375 54.6875 
L 18.109375 46.1875 
Q 21.34375 51.125 25.703125 53.5625 
Q 30.078125 56 35.796875 56 
Q 45.21875 56 50.046875 50.171875 
Q 54.890625 44.34375 54.890625 33.015625 
z
" id="DejaVuSans-110"/>
      <path d="M 11.71875 12.40625 
L 22.015625 12.40625 
L 22.015625 4 
L 14.015625 -11.625 
L 7.71875 -11.625 
L 11.71875 4 
z
" id="DejaVuSans-44"/>
      <path d="M -0.296875 72.90625 
L 61.375 72.90625 
L 61.375 64.59375 
L 35.5 64.59375 
L 35.5 0 
L 25.59375 0 
L 25.59375 64.59375 
L -0.296875 64.59375 
z
" id="DejaVuSans-84"/>
      <path d="M 34.1875 63.1875 
L 20.796875 26.90625 
L 47.609375 26.90625 
z
M 28.609375 72.90625 
L 39.796875 72.90625 
L 67.578125 0 
L 57.328125 0 
L 50.6875 18.703125 
L 17.828125 18.703125 
L 11.1875 0 
L 0.78125 0 
z
" id="DejaVuSans-65"/>
      <path d="M 34.28125 27.484375 
Q 23.390625 27.484375 19.1875 25 
Q 14.984375 22.515625 14.984375 16.5 
Q 14.984375 11.71875 18.140625 8.90625 
Q 21.296875 6.109375 26.703125 6.109375 
Q 34.1875 6.109375 38.703125 11.40625 
Q 43.21875 16.703125 43.21875 25.484375 
L 43.21875 27.484375 
z
M 52.203125 31.203125 
L 52.203125 0 
L 43.21875 0 
L 43.21875 8.296875 
Q 40.140625 3.328125 35.546875 0.953125 
Q 30.953125 -1.421875 24.3125 -1.421875 
Q 15.921875 -1.421875 10.953125 3.296875 
Q 6 8.015625 6 15.921875 
Q 6 25.140625 12.171875 29.828125 
Q 18.359375 34.515625 30.609375 34.515625 
L 43.21875 34.515625 
L 43.21875 35.40625 
Q 43.21875 41.609375 39.140625 45 
Q 35.0625 48.390625 27.6875 48.390625 
Q 23 48.390625 18.546875 47.265625 
Q 14.109375 46.140625 10.015625 43.890625 
L 10.015625 52.203125 
Q 14.9375 54.109375 19.578125 55.046875 
Q 24.21875 56 28.609375 56 
Q 40.484375 56 46.34375 49.84375 
Q 52.203125 43.703125 52.203125 31.203125 
z
" id="DejaVuSans-97"/>
      <path d="M 48.78125 52.59375 
L 48.78125 44.1875 
Q 44.96875 46.296875 41.140625 47.34375 
Q 37.3125 48.390625 33.40625 48.390625 
Q 24.65625 48.390625 19.8125 42.84375 
Q 14.984375 37.3125 14.984375 27.296875 
Q 14.984375 17.28125 19.8125 11.734375 
Q 24.65625 6.203125 33.40625 6.203125 
Q 37.3125 6.203125 41.140625 7.25 
Q 44.96875 8.296875 48.78125 10.40625 
L 48.78125 2.09375 
Q 45.015625 0.34375 40.984375 -0.53125 
Q 36.96875 -1.421875 32.421875 -1.421875 
Q 20.0625 -1.421875 12.78125 6.34375 
Q 5.515625 14.109375 5.515625 27.296875 
Q 5.515625 40.671875 12.859375 48.328125 
Q 20.21875 56 33.015625 56 
Q 37.15625 56 41.109375 55.140625 
Q 45.0625 54.296875 48.78125 52.59375 
z
" id="DejaVuSans-99"/>
      <path d="M 54.890625 33.015625 
L 54.890625 0 
L 45.90625 0 
L 45.90625 32.71875 
Q 45.90625 40.484375 42.875 44.328125 
Q 39.84375 48.1875 33.796875 48.1875 
Q 26.515625 48.1875 22.3125 43.546875 
Q 18.109375 38.921875 18.109375 30.90625 
L 18.109375 0 
L 9.078125 0 
L 9.078125 75.984375 
L 18.109375 75.984375 
L 18.109375 46.1875 
Q 21.34375 51.125 25.703125 53.5625 
Q 30.078125 56 35.796875 56 
Q 45.21875 56 50.046875 50.171875 
Q 54.890625 44.34375 54.890625 33.015625 
z
" id="DejaVuSans-104"/>
      <path d="M 9.421875 54.6875 
L 18.40625 54.6875 
L 18.40625 0 
L 9.421875 0 
z
M 9.421875 75.984375 
L 18.40625 75.984375 
L 18.40625 64.59375 
L 9.421875 64.59375 
z
" id="DejaVuSans-105"/>
      <path d="M 45.40625 27.984375 
Q 45.40625 37.75 41.375 43.109375 
Q 37.359375 48.484375 30.078125 48.484375 
Q 22.859375 48.484375 18.828125 43.109375 
Q 14.796875 37.75 14.796875 27.984375 
Q 14.796875 18.265625 18.828125 12.890625 
Q 22.859375 7.515625 30.078125 7.515625 
Q 37.359375 7.515625 41.375 12.890625 
Q 45.40625 18.265625 45.40625 27.984375 
z
M 54.390625 6.78125 
Q 54.390625 -7.171875 48.1875 -13.984375 
Q 42 -20.796875 29.203125 -20.796875 
Q 24.46875 -20.796875 20.265625 -20.09375 
Q 16.0625 -19.390625 12.109375 -17.921875 
L 12.109375 -9.1875 
Q 16.0625 -11.328125 19.921875 -12.34375 
Q 23.78125 -13.375 27.78125 -13.375 
Q 36.625 -13.375 41.015625 -8.765625 
Q 45.40625 -4.15625 45.40625 5.171875 
L 45.40625 9.625 
Q 42.625 4.78125 38.28125 2.390625 
Q 33.9375 0 27.875 0 
Q 17.828125 0 11.671875 7.65625 
Q 5.515625 15.328125 5.515625 27.984375 
Q 5.515625 40.671875 11.671875 48.328125 
Q 17.828125 56 27.875 56 
Q 33.9375 56 38.28125 53.609375 
Q 42.625 51.21875 45.40625 46.390625 
L 45.40625 54.6875 
L 54.390625 54.6875 
z
" id="DejaVuSans-103"/>
      <path d="M 8.5 21.578125 
L 8.5 54.6875 
L 17.484375 54.6875 
L 17.484375 21.921875 
Q 17.484375 14.15625 20.5 10.265625 
Q 23.53125 6.390625 29.59375 6.390625 
Q 36.859375 6.390625 41.078125 11.03125 
Q 45.3125 15.671875 45.3125 23.6875 
L 45.3125 54.6875 
L 54.296875 54.6875 
L 54.296875 0 
L 45.3125 0 
L 45.3125 8.40625 
Q 42.046875 3.421875 37.71875 1 
Q 33.40625 -1.421875 27.6875 -1.421875 
Q 18.265625 -1.421875 13.375 4.4375 
Q 8.5 10.296875 8.5 21.578125 
z
M 31.109375 56 
z
" id="DejaVuSans-117"/>
      <path d="M 8.015625 75.875 
L 15.828125 75.875 
Q 23.140625 64.359375 26.78125 53.3125 
Q 30.421875 42.28125 30.421875 31.390625 
Q 30.421875 20.453125 26.78125 9.375 
Q 23.140625 -1.703125 15.828125 -13.1875 
L 8.015625 -13.1875 
Q 14.5 -2 17.703125 9.0625 
Q 20.90625 20.125 20.90625 31.390625 
Q 20.90625 42.671875 17.703125 53.65625 
Q 14.5 64.65625 8.015625 75.875 
z
" id="DejaVuSans-41"/>
     </defs>
     <g transform="translate(-37.678125 51.158437)scale(0.1 -0.1)">
      <use xlink:href="#DejaVuSans-82"/>
      <use x="69.419922" xlink:href="#DejaVuSans-111"/>
      <use x="130.601562" xlink:href="#DejaVuSans-108"/>
      <use x="158.384766" xlink:href="#DejaVuSans-101"/>
      <use x="219.908203" xlink:href="#DejaVuSans-32"/>
      <use x="251.695312" xlink:href="#DejaVuSans-40"/>
      <use x="290.708984" xlink:href="#DejaVuSans-80"/>
      <use x="350.996094" xlink:href="#DejaVuSans-114"/>
      <use x="392.109375" xlink:href="#DejaVuSans-32"/>
      <use x="423.896484" xlink:href="#DejaVuSans-61"/>
      <use x="507.685547" xlink:href="#DejaVuSans-32"/>
      <use x="539.472656" xlink:href="#DejaVuSans-112"/>
      <use x="602.949219" xlink:href="#DejaVuSans-114"/>
      <use x="644.03125" xlink:href="#DejaVuSans-101"/>
      <use x="705.554688" xlink:href="#DejaVuSans-115"/>
      <use x="757.654297" xlink:href="#DejaVuSans-101"/>
      <use x="819.177734" xlink:href="#DejaVuSans-110"/>
      <use x="882.556641" xlink:href="#DejaVuSans-116"/>
      <use x="921.765625" xlink:href="#DejaVuSans-101"/>
      <use x="983.289062" xlink:href="#DejaVuSans-114"/>
      <use x="1024.402344" xlink:href="#DejaVuSans-44"/>
      <use x="1056.189453" xlink:href="#DejaVuSans-32"/>
      <use x="1087.976562" xlink:href="#DejaVuSans-84"/>
      <use x="1148.951172" xlink:href="#DejaVuSans-65"/>
      <use x="1217.359375" xlink:href="#DejaVuSans-32"/>
      <use x="1249.146484" xlink:href="#DejaVuSans-61"/>
      <use x="1332.935547" xlink:href="#DejaVuSans-32"/>
      <use x="1364.722656" xlink:href="#DejaVuSans-116"/>
      <use x="1403.931641" xlink:href="#DejaVuSans-101"/>
      <use x="1465.455078" xlink:href="#DejaVuSans-97"/>
      <use x="1526.734375" xlink:href="#DejaVuSans-99"/>
      <use x="1581.714844" xlink:href="#DejaVuSans-104"/>
      <use x="1645.09375" xlink:href="#DejaVuSans-105"/>
      <use x="1672.876953" xlink:href="#DejaVuSans-110"/>
      <use x="1736.255859" xlink:href="#DejaVuSans-103"/>
      <use x="1799.732422" xlink:href="#DejaVuSans-32"/>
      <use x="1831.519531" xlink:href="#DejaVuSans-97"/>
      <use x="1892.798828" xlink:href="#DejaVuSans-115"/>
      <use x="1944.898438" xlink:href="#DejaVuSans-115"/>
      <use x="1996.998047" xlink:href="#DejaVuSans-105"/>
      <use x="2024.78125" xlink:href="#DejaVuSans-115"/>
      <use x="2076.880859" xlink:href="#DejaVuSans-116"/>
      <use x="2116.089844" xlink:href="#DejaVuSans-97"/>
      <use x="2177.369141" xlink:href="#DejaVuSans-110"/>
      <use x="2240.748047" xlink:href="#DejaVuSans-116"/>
      <use x="2279.957031" xlink:href="#DejaVuSans-44"/>
      <use x="2311.744141" xlink:href="#DejaVuSans-32"/>
      <use x="2343.53125" xlink:href="#DejaVuSans-84"/>
      <use x="2404.349609" xlink:href="#DejaVuSans-101"/>
      <use x="2465.873047" xlink:href="#DejaVuSans-32"/>
      <use x="2497.660156" xlink:href="#DejaVuSans-61"/>
      <use x="2581.449219" xlink:href="#DejaVuSans-32"/>
      <use x="2613.236328" xlink:href="#DejaVuSans-116"/>
      <use x="2652.445312" xlink:href="#DejaVuSans-101"/>
      <use x="2713.96875" xlink:href="#DejaVuSans-97"/>
      <use x="2775.248047" xlink:href="#DejaVuSans-99"/>
      <use x="2830.228516" xlink:href="#DejaVuSans-104"/>
      <use x="2893.607422" xlink:href="#DejaVuSans-101"/>
      <use x="2955.130859" xlink:href="#DejaVuSans-114"/>
      <use x="2996.244141" xlink:href="#DejaVuSans-44"/>
      <use x="3028.03125" xlink:href="#DejaVuSans-32"/>
      <use x="3059.818359" xlink:href="#DejaVuSans-80"/>
      <use x="3120.074219" xlink:href="#DejaVuSans-101"/>
      <use x="3181.597656" xlink:href="#DejaVuSans-32"/>
      <use x="3213.384766" xlink:href="#DejaVuSans-61"/>
      <use x="3297.173828" xlink:href="#DejaVuSans-32"/>
      <use x="3328.960938" xlink:href="#DejaVuSans-112"/>
      <use x="3392.4375" xlink:href="#DejaVuSans-101"/>
      <use x="3453.960938" xlink:href="#DejaVuSans-101"/>
      <use x="3515.484375" xlink:href="#DejaVuSans-114"/>
      <use x="3556.597656" xlink:href="#DejaVuSans-44"/>
      <use x="3588.384766" xlink:href="#DejaVuSans-32"/>
      <use x="3620.171875" xlink:href="#DejaVuSans-84"/>
      <use x="3681.021484" xlink:href="#DejaVuSans-117"/>
      <use x="3744.400391" xlink:href="#DejaVuSans-32"/>
      <use x="3776.1875" xlink:href="#DejaVuSans-61"/>
      <use x="3859.976562" xlink:href="#DejaVuSans-32"/>
      <use x="3891.763672" xlink:href="#DejaVuSans-116"/>
      <use x="3930.972656" xlink:href="#DejaVuSans-117"/>
      <use x="3994.351562" xlink:href="#DejaVuSans-116"/>
      <use x="4033.560547" xlink:href="#DejaVuSans-111"/>
      <use x="4094.742188" xlink:href="#DejaVuSans-114"/>
      <use x="4135.855469" xlink:href="#DejaVuSans-41"/>
     </g>
    </g>
    <g id="patch_140">
     <path d="M 143.048437 65.836562 
L 163.048437 65.836562 
L 163.048437 58.836562 
L 143.048437 58.836562 
z
" style="fill:#0d0887;"/>
    </g>
    <g id="text_21">
     <!-- Ot -->
     <defs>
      <path d="M 39.40625 66.21875 
Q 28.65625 66.21875 22.328125 58.203125 
Q 16.015625 50.203125 16.015625 36.375 
Q 16.015625 22.609375 22.328125 14.59375 
Q 28.65625 6.59375 39.40625 6.59375 
Q 50.140625 6.59375 56.421875 14.59375 
Q 62.703125 22.609375 62.703125 36.375 
Q 62.703125 50.203125 56.421875 58.203125 
Q 50.140625 66.21875 39.40625 66.21875 
z
M 39.40625 74.21875 
Q 54.734375 74.21875 63.90625 63.9375 
Q 73.09375 53.65625 73.09375 36.375 
Q 73.09375 19.140625 63.90625 8.859375 
Q 54.734375 -1.421875 39.40625 -1.421875 
Q 24.03125 -1.421875 14.8125 8.828125 
Q 5.609375 19.09375 5.609375 36.375 
Q 5.609375 53.65625 14.8125 63.9375 
Q 24.03125 74.21875 39.40625 74.21875 
z
" id="DejaVuSans-79"/>
     </defs>
     <g transform="translate(171.048437 65.836562)scale(0.1 -0.1)">
      <use xlink:href="#DejaVuSans-79"/>
      <use x="78.710938" xlink:href="#DejaVuSans-116"/>
     </g>
    </g>
    <g id="patch_141">
     <path d="M 143.048437 80.514688 
L 163.048437 80.514688 
L 163.048437 73.514688 
L 143.048437 73.514688 
z
" style="fill:#41049d;"/>
    </g>
    <g id="text_22">
     <!-- Pe -->
     <g transform="translate(171.048437 80.514688)scale(0.1 -0.1)">
      <use xlink:href="#DejaVuSans-80"/>
      <use x="60.255859" xlink:href="#DejaVuSans-101"/>
     </g>
    </g>
    <g id="patch_142">
     <path d="M 143.048437 95.192813 
L 163.048437 95.192813 
L 163.048437 88.192813 
L 143.048437 88.192813 
z
" style="fill:#6a00a8;"/>
    </g>
    <g id="text_23">
     <!-- Pe/Tu -->
     <defs>
      <path d="M 25.390625 72.90625 
L 33.6875 72.90625 
L 8.296875 -9.28125 
L 0 -9.28125 
z
" id="DejaVuSans-47"/>
     </defs>
     <g transform="translate(171.048437 95.192813)scale(0.1 -0.1)">
      <use xlink:href="#DejaVuSans-80"/>
      <use x="60.255859" xlink:href="#DejaVuSans-101"/>
      <use x="121.779297" xlink:href="#DejaVuSans-47"/>
      <use x="155.470703" xlink:href="#DejaVuSans-84"/>
      <use x="216.320312" xlink:href="#DejaVuSans-117"/>
     </g>
    </g>
    <g id="patch_143">
     <path d="M 143.048437 109.870937 
L 163.048437 109.870937 
L 163.048437 102.870937 
L 143.048437 102.870937 
z
" style="fill:#8f0da4;"/>
    </g>
    <g id="text_24">
     <!-- Pr -->
     <g transform="translate(171.048437 109.870937)scale(0.1 -0.1)">
      <use xlink:href="#DejaVuSans-80"/>
      <use x="60.287109" xlink:href="#DejaVuSans-114"/>
     </g>
    </g>
    <g id="patch_144">
     <path d="M 143.048437 124.549062 
L 163.048437 124.549062 
L 163.048437 117.549062 
L 143.048437 117.549062 
z
" style="fill:#b12a90;"/>
    </g>
    <g id="text_25">
     <!-- TA -->
     <g transform="translate(171.048437 124.549062)scale(0.1 -0.1)">
      <use xlink:href="#DejaVuSans-84"/>
      <use x="60.974609" xlink:href="#DejaVuSans-65"/>
     </g>
    </g>
    <g id="patch_145">
     <path d="M 143.048437 139.227188 
L 163.048437 139.227188 
L 163.048437 132.227188 
L 143.048437 132.227188 
z
" style="fill:#cc4778;"/>
    </g>
    <g id="text_26">
     <!-- Te -->
     <g transform="translate(171.048437 139.227188)scale(0.1 -0.1)">
      <use xlink:href="#DejaVuSans-84"/>
      <use x="60.818359" xlink:href="#DejaVuSans-101"/>
     </g>
    </g>
    <g id="patch_146">
     <path d="M 143.048437 153.905312 
L 163.048437 153.905312 
L 163.048437 146.905312 
L 143.048437 146.905312 
z
" style="fill:#e16462;"/>
    </g>
    <g id="text_27">
     <!-- Te/Pe -->
     <g transform="translate(171.048437 153.905312)scale(0.1 -0.1)">
      <use xlink:href="#DejaVuSans-84"/>
      <use x="60.818359" xlink:href="#DejaVuSans-101"/>
      <use x="122.341797" xlink:href="#DejaVuSans-47"/>
      <use x="156.033203" xlink:href="#DejaVuSans-80"/>
      <use x="216.289062" xlink:href="#DejaVuSans-101"/>
     </g>
    </g>
    <g id="patch_147">
     <path d="M 143.048437 168.583438 
L 163.048437 168.583438 
L 163.048437 161.583438 
L 143.048437 161.583438 
z
" style="fill:#f2844b;"/>
    </g>
    <g id="text_28">
     <!-- Tool -->
     <g transform="translate(171.048437 168.583438)scale(0.1 -0.1)">
      <use xlink:href="#DejaVuSans-84"/>
      <use x="60.818359" xlink:href="#DejaVuSans-111"/>
      <use x="122" xlink:href="#DejaVuSans-111"/>
      <use x="183.181641" xlink:href="#DejaVuSans-108"/>
     </g>
    </g>
    <g id="patch_148">
     <path d="M 143.048437 183.261562 
L 163.048437 183.261562 
L 163.048437 176.261562 
L 143.048437 176.261562 
z
" style="fill:#fca636;"/>
    </g>
    <g id="text_29">
     <!-- Tu -->
     <g transform="translate(171.048437 183.261562)scale(0.1 -0.1)">
      <use xlink:href="#DejaVuSans-84"/>
      <use x="60.849609" xlink:href="#DejaVuSans-117"/>
     </g>
    </g>
    <g id="patch_149">
     <path d="M 143.048437 197.939687 
L 163.048437 197.939687 
L 163.048437 190.939687 
L 143.048437 190.939687 
z
" style="fill:#fcce25;"/>
    </g>
    <g id="text_30">
     <!-- Tu/Pe -->
     <g transform="translate(171.048437 197.939687)scale(0.1 -0.1)">
      <use xlink:href="#DejaVuSans-84"/>
      <use x="60.849609" xlink:href="#DejaVuSans-117"/>
      <use x="124.228516" xlink:href="#DejaVuSans-47"/>
      <use x="157.919922" xlink:href="#DejaVuSans-80"/>
      <use x="218.175781" xlink:href="#DejaVuSans-101"/>
     </g>
    </g>
    <g id="patch_150">
     <path d="M 143.048437 212.617812 
L 163.048437 212.617812 
L 163.048437 205.617812 
L 143.048437 205.617812 
z
" style="fill:#f0f921;"/>
    </g>
    <g id="text_31">
     <!-- Tu/Te -->
     <g transform="translate(171.048437 212.617812)scale(0.1 -0.1)">
      <use xlink:href="#DejaVuSans-84"/>
      <use x="60.849609" xlink:href="#DejaVuSans-117"/>
      <use x="124.228516" xlink:href="#DejaVuSans-47"/>
      <use x="157.919922" xlink:href="#DejaVuSans-84"/>
      <use x="218.738281" xlink:href="#DejaVuSans-101"/>
     </g>
    </g>
   </g>
  </g>
 </g>
 <defs>
  <clipPath id="p8c761fa434">
   <rect height="217.44" width="334.8" x="54" y="34.56"/>
  </clipPath>
 </defs>
</svg>
